<?xml version="1.0" encoding="us-ascii" standalone="no"?><svg xmlns="http://www.w3.org/2000/svg" xmlns:xlink="http://www.w3.org/1999/xlink" contentStyleType="text/css" height="1840px" preserveAspectRatio="none" style="width:956px;height:1840px;background:#FFFFFF;" version="1.1" viewBox="0 0 956 1840" width="956px" zoomAndPan="magnify"><defs/><g><!--cluster BankAccounts--><g id="cluster_BankAccounts"><rect fill="none" height="620" rx="2.5" ry="2.5" style="stroke:#000000;stroke-width:1.5;" width="703" x="222" y="307"/><text fill="#000000" font-family="sans-serif" font-size="14" font-weight="bold" lengthAdjust="spacing" textLength="100" x="523.5" y="323.5332">BankAccounts</text></g><!--cluster Transactions--><g id="cluster_Transactions"><rect fill="none" height="448" rx="2.5" ry="2.5" style="stroke:#000000;stroke-width:1.5;" width="473.5" x="476.5" y="1000"/><text fill="#000000" font-family="sans-serif" font-size="14" font-weight="bold" lengthAdjust="spacing" textLength="90" x="668.25" y="1016.5332">Transactions</text></g><!--cluster Payments--><g id="cluster_Payments"><rect fill="none" height="362" rx="2.5" ry="2.5" style="stroke:#000000;stroke-width:1.5;" width="415" x="229" y="1472"/><text fill="#000000" font-family="sans-serif" font-size="14" font-weight="bold" lengthAdjust="spacing" textLength="67" x="403" y="1488.5332">Payments</text></g><!--cluster Clients--><g id="cluster_Clients"><rect fill="none" height="276" rx="2.5" ry="2.5" style="stroke:#000000;stroke-width:1.5;" width="361" x="7" y="7"/><text fill="#000000" font-family="sans-serif" font-size="14" font-weight="bold" lengthAdjust="spacing" textLength="49" x="163" y="23.5332">Clients</text></g><!--class BankAccount--><g id="elem_BankAccount"><rect codeLine="8" fill="#F1F1F1" height="50.7031" id="BankAccount" rx="2.5" ry="2.5" style="stroke:#181818;stroke-width:0.5;" width="115" x="238" y="629.5"/><ellipse cx="253" cy="650.8516" fill="#ADD1B2" rx="11" ry="11" style="stroke:#181818;stroke-width:1.0;"/><path d="M255.7656,646.7266 Q255.9219,646.5078 256.1094,646.3984 Q256.2969,646.2891 256.5156,646.2891 Q256.8906,646.2891 257.125,646.5547 Q257.3594,646.8047 257.3594,647.4141 L257.3594,648.8672 Q257.3594,649.4766 257.125,649.7422 Q256.8906,650.0078 256.5156,650.0078 Q256.1719,650.0078 255.9688,649.8047 Q255.7656,649.6172 255.6563,649.1016 Q255.6094,648.7422 255.4219,648.5547 Q255.0938,648.1797 254.4844,647.9609 Q253.875,647.7422 253.25,647.7422 Q252.4844,647.7422 251.8438,648.0703 Q251.2188,648.3984 250.7188,649.1484 Q250.2344,649.8984 250.2344,650.9297 L250.2344,652.0234 Q250.2344,653.2578 251.125,654.0859 Q252.0156,654.8984 253.6094,654.8984 Q254.5469,654.8984 255.2031,654.6484 Q255.5938,654.4922 256.0156,654.0547 Q256.2813,653.7891 256.4219,653.7109 Q256.5781,653.6328 256.7813,653.6328 Q257.1094,653.6328 257.3594,653.8984 Q257.625,654.1484 257.625,654.4922 Q257.625,654.8359 257.2813,655.2422 Q256.7813,655.8203 255.9844,656.1484 Q254.9063,656.6016 253.6094,656.6016 Q252.0938,656.6016 250.8906,655.9766 Q249.9063,655.4766 249.2188,654.4141 Q248.5313,653.3359 248.5313,652.0547 L248.5313,650.8984 Q248.5313,649.5703 249.1406,648.4297 Q249.7656,647.2734 250.8594,646.6641 Q251.9531,646.0391 253.1875,646.0391 Q253.9219,646.0391 254.5625,646.2109 Q255.2188,646.3672 255.7656,646.7266 Z " fill="#000000"/><text fill="#000000" font-family="sans-serif" font-size="12" font-style="italic" lengthAdjust="spacing" textLength="73" x="272" y="646.957">&#171;Entity Root&#187;</text><text fill="#000000" font-family="sans-serif" font-size="14" lengthAdjust="spacing" textLength="83" x="267" y="664.127">BankAccount</text><line style="stroke:#181818;stroke-width:0.5;" x1="239" x2="352" y1="672.2031" y2="672.2031"/></g><!--class BankInstitution--><g id="elem_BankInstitution"><rect codeLine="11" fill="#F1F1F1" height="50.7031" id="BankInstitution" rx="2.5" ry="2.5" style="stroke:#181818;stroke-width:0.5;" width="124" x="487" y="859.5"/><ellipse cx="502" cy="880.8516" fill="#ADD1B2" rx="11" ry="11" style="stroke:#181818;stroke-width:1.0;"/><path d="M504.7656,876.7266 Q504.9219,876.5078 505.1094,876.3984 Q505.2969,876.2891 505.5156,876.2891 Q505.8906,876.2891 506.125,876.5547 Q506.3594,876.8047 506.3594,877.4141 L506.3594,878.8672 Q506.3594,879.4766 506.125,879.7422 Q505.8906,880.0078 505.5156,880.0078 Q505.1719,880.0078 504.9688,879.8047 Q504.7656,879.6172 504.6563,879.1016 Q504.6094,878.7422 504.4219,878.5547 Q504.0938,878.1797 503.4844,877.9609 Q502.875,877.7422 502.25,877.7422 Q501.4844,877.7422 500.8438,878.0703 Q500.2188,878.3984 499.7188,879.1484 Q499.2344,879.8984 499.2344,880.9297 L499.2344,882.0234 Q499.2344,883.2578 500.125,884.0859 Q501.0156,884.8984 502.6094,884.8984 Q503.5469,884.8984 504.2031,884.6484 Q504.5938,884.4922 505.0156,884.0547 Q505.2813,883.7891 505.4219,883.7109 Q505.5781,883.6328 505.7813,883.6328 Q506.1094,883.6328 506.3594,883.8984 Q506.625,884.1484 506.625,884.4922 Q506.625,884.8359 506.2813,885.2422 Q505.7813,885.8203 504.9844,886.1484 Q503.9063,886.6016 502.6094,886.6016 Q501.0938,886.6016 499.8906,885.9766 Q498.9063,885.4766 498.2188,884.4141 Q497.5313,883.3359 497.5313,882.0547 L497.5313,880.8984 Q497.5313,879.5703 498.1406,878.4297 Q498.7656,877.2734 499.8594,876.6641 Q500.9531,876.0391 502.1875,876.0391 Q502.9219,876.0391 503.5625,876.2109 Q504.2188,876.3672 504.7656,876.7266 Z " fill="#000000"/><text fill="#000000" font-family="sans-serif" font-size="12" font-style="italic" lengthAdjust="spacing" textLength="44" x="540" y="876.957">&#171;Entity&#187;</text><text fill="#000000" font-family="sans-serif" font-size="14" lengthAdjust="spacing" textLength="92" x="516" y="894.127">BankInstitution</text><line style="stroke:#181818;stroke-width:0.5;" x1="488" x2="610" y1="902.2031" y2="902.2031"/></g><!--class BankCommission--><g id="elem_BankCommission"><rect codeLine="14" fill="#F1F1F1" height="50.7031" id="BankCommission" rx="2.5" ry="2.5" style="stroke:#181818;stroke-width:0.5;" width="140" x="479" y="773.5"/><ellipse cx="494" cy="794.8516" fill="#ADD1B2" rx="11" ry="11" style="stroke:#181818;stroke-width:1.0;"/><path d="M496.7656,790.7266 Q496.9219,790.5078 497.1094,790.3984 Q497.2969,790.2891 497.5156,790.2891 Q497.8906,790.2891 498.125,790.5547 Q498.3594,790.8047 498.3594,791.4141 L498.3594,792.8672 Q498.3594,793.4766 498.125,793.7422 Q497.8906,794.0078 497.5156,794.0078 Q497.1719,794.0078 496.9688,793.8047 Q496.7656,793.6172 496.6563,793.1016 Q496.6094,792.7422 496.4219,792.5547 Q496.0938,792.1797 495.4844,791.9609 Q494.875,791.7422 494.25,791.7422 Q493.4844,791.7422 492.8438,792.0703 Q492.2188,792.3984 491.7188,793.1484 Q491.2344,793.8984 491.2344,794.9297 L491.2344,796.0234 Q491.2344,797.2578 492.125,798.0859 Q493.0156,798.8984 494.6094,798.8984 Q495.5469,798.8984 496.2031,798.6484 Q496.5938,798.4922 497.0156,798.0547 Q497.2813,797.7891 497.4219,797.7109 Q497.5781,797.6328 497.7813,797.6328 Q498.1094,797.6328 498.3594,797.8984 Q498.625,798.1484 498.625,798.4922 Q498.625,798.8359 498.2813,799.2422 Q497.7813,799.8203 496.9844,800.1484 Q495.9063,800.6016 494.6094,800.6016 Q493.0938,800.6016 491.8906,799.9766 Q490.9063,799.4766 490.2188,798.4141 Q489.5313,797.3359 489.5313,796.0547 L489.5313,794.8984 Q489.5313,793.5703 490.1406,792.4297 Q490.7656,791.2734 491.8594,790.6641 Q492.9531,790.0391 494.1875,790.0391 Q494.9219,790.0391 495.5625,790.2109 Q496.2188,790.3672 496.7656,790.7266 Z " fill="#000000"/><text fill="#000000" font-family="sans-serif" font-size="12" font-style="italic" lengthAdjust="spacing" textLength="44" x="540" y="790.957">&#171;Entity&#187;</text><text fill="#000000" font-family="sans-serif" font-size="14" lengthAdjust="spacing" textLength="108" x="508" y="808.127">BankCommission</text><line style="stroke:#181818;stroke-width:0.5;" x1="480" x2="618" y1="816.2031" y2="816.2031"/></g><!--class Value--><g id="elem_Value"><rect codeLine="17" fill="#F1F1F1" height="50.7031" id="Value" rx="2.5" ry="2.5" style="stroke:#181818;stroke-width:0.5;" width="113" x="788.5" y="685.5"/><ellipse cx="803.5" cy="706.8516" fill="#ADD1B2" rx="11" ry="11" style="stroke:#181818;stroke-width:1.0;"/><path d="M806.2656,702.7266 Q806.4219,702.5078 806.6094,702.3984 Q806.7969,702.2891 807.0156,702.2891 Q807.3906,702.2891 807.625,702.5547 Q807.8594,702.8047 807.8594,703.4141 L807.8594,704.8672 Q807.8594,705.4766 807.625,705.7422 Q807.3906,706.0078 807.0156,706.0078 Q806.6719,706.0078 806.4688,705.8047 Q806.2656,705.6172 806.1563,705.1016 Q806.1094,704.7422 805.9219,704.5547 Q805.5938,704.1797 804.9844,703.9609 Q804.375,703.7422 803.75,703.7422 Q802.9844,703.7422 802.3438,704.0703 Q801.7188,704.3984 801.2188,705.1484 Q800.7344,705.8984 800.7344,706.9297 L800.7344,708.0234 Q800.7344,709.2578 801.625,710.0859 Q802.5156,710.8984 804.1094,710.8984 Q805.0469,710.8984 805.7031,710.6484 Q806.0938,710.4922 806.5156,710.0547 Q806.7813,709.7891 806.9219,709.7109 Q807.0781,709.6328 807.2813,709.6328 Q807.6094,709.6328 807.8594,709.8984 Q808.125,710.1484 808.125,710.4922 Q808.125,710.8359 807.7813,711.2422 Q807.2813,711.8203 806.4844,712.1484 Q805.4063,712.6016 804.1094,712.6016 Q802.5938,712.6016 801.3906,711.9766 Q800.4063,711.4766 799.7188,710.4141 Q799.0313,709.3359 799.0313,708.0547 L799.0313,706.8984 Q799.0313,705.5703 799.6406,704.4297 Q800.2656,703.2734 801.3594,702.6641 Q802.4531,702.0391 803.6875,702.0391 Q804.4219,702.0391 805.0625,702.2109 Q805.7188,702.3672 806.2656,702.7266 Z " fill="#000000"/><text fill="#000000" font-family="sans-serif" font-size="12" font-style="italic" lengthAdjust="spacing" textLength="85" x="815.5" y="702.957">&#171;Value Object&#187;</text><text fill="#000000" font-family="sans-serif" font-size="14" lengthAdjust="spacing" textLength="36" x="840" y="720.127">Value</text><line style="stroke:#181818;stroke-width:0.5;" x1="789.5" x2="900.5" y1="728.2031" y2="728.2031"/></g><!--class Name--><g id="elem_Name"><rect codeLine="20" fill="#F1F1F1" height="50.7031" id="Name" rx="2.5" ry="2.5" style="stroke:#181818;stroke-width:0.5;" width="113" x="788.5" y="599.5"/><ellipse cx="803.5" cy="620.8516" fill="#ADD1B2" rx="11" ry="11" style="stroke:#181818;stroke-width:1.0;"/><path d="M806.2656,616.7266 Q806.4219,616.5078 806.6094,616.3984 Q806.7969,616.2891 807.0156,616.2891 Q807.3906,616.2891 807.625,616.5547 Q807.8594,616.8047 807.8594,617.4141 L807.8594,618.8672 Q807.8594,619.4766 807.625,619.7422 Q807.3906,620.0078 807.0156,620.0078 Q806.6719,620.0078 806.4688,619.8047 Q806.2656,619.6172 806.1563,619.1016 Q806.1094,618.7422 805.9219,618.5547 Q805.5938,618.1797 804.9844,617.9609 Q804.375,617.7422 803.75,617.7422 Q802.9844,617.7422 802.3438,618.0703 Q801.7188,618.3984 801.2188,619.1484 Q800.7344,619.8984 800.7344,620.9297 L800.7344,622.0234 Q800.7344,623.2578 801.625,624.0859 Q802.5156,624.8984 804.1094,624.8984 Q805.0469,624.8984 805.7031,624.6484 Q806.0938,624.4922 806.5156,624.0547 Q806.7813,623.7891 806.9219,623.7109 Q807.0781,623.6328 807.2813,623.6328 Q807.6094,623.6328 807.8594,623.8984 Q808.125,624.1484 808.125,624.4922 Q808.125,624.8359 807.7813,625.2422 Q807.2813,625.8203 806.4844,626.1484 Q805.4063,626.6016 804.1094,626.6016 Q802.5938,626.6016 801.3906,625.9766 Q800.4063,625.4766 799.7188,624.4141 Q799.0313,623.3359 799.0313,622.0547 L799.0313,620.8984 Q799.0313,619.5703 799.6406,618.4297 Q800.2656,617.2734 801.3594,616.6641 Q802.4531,616.0391 803.6875,616.0391 Q804.4219,616.0391 805.0625,616.2109 Q805.7188,616.3672 806.2656,616.7266 Z " fill="#000000"/><text fill="#000000" font-family="sans-serif" font-size="12" font-style="italic" lengthAdjust="spacing" textLength="85" x="815.5" y="616.957">&#171;Value Object&#187;</text><text fill="#000000" font-family="sans-serif" font-size="14" lengthAdjust="spacing" textLength="36" x="840" y="634.127">Name</text><line style="stroke:#181818;stroke-width:0.5;" x1="789.5" x2="900.5" y1="642.2031" y2="642.2031"/></g><!--class AccountNumber--><g id="elem_AccountNumber"><rect codeLine="23" fill="#F1F1F1" height="50.7031" id="AccountNumber" rx="2.5" ry="2.5" style="stroke:#181818;stroke-width:0.5;" width="132" x="483" y="687.5"/><ellipse cx="498" cy="708.8516" fill="#ADD1B2" rx="11" ry="11" style="stroke:#181818;stroke-width:1.0;"/><path d="M500.7656,704.7266 Q500.9219,704.5078 501.1094,704.3984 Q501.2969,704.2891 501.5156,704.2891 Q501.8906,704.2891 502.125,704.5547 Q502.3594,704.8047 502.3594,705.4141 L502.3594,706.8672 Q502.3594,707.4766 502.125,707.7422 Q501.8906,708.0078 501.5156,708.0078 Q501.1719,708.0078 500.9688,707.8047 Q500.7656,707.6172 500.6563,707.1016 Q500.6094,706.7422 500.4219,706.5547 Q500.0938,706.1797 499.4844,705.9609 Q498.875,705.7422 498.25,705.7422 Q497.4844,705.7422 496.8438,706.0703 Q496.2188,706.3984 495.7188,707.1484 Q495.2344,707.8984 495.2344,708.9297 L495.2344,710.0234 Q495.2344,711.2578 496.125,712.0859 Q497.0156,712.8984 498.6094,712.8984 Q499.5469,712.8984 500.2031,712.6484 Q500.5938,712.4922 501.0156,712.0547 Q501.2813,711.7891 501.4219,711.7109 Q501.5781,711.6328 501.7813,711.6328 Q502.1094,711.6328 502.3594,711.8984 Q502.625,712.1484 502.625,712.4922 Q502.625,712.8359 502.2813,713.2422 Q501.7813,713.8203 500.9844,714.1484 Q499.9063,714.6016 498.6094,714.6016 Q497.0938,714.6016 495.8906,713.9766 Q494.9063,713.4766 494.2188,712.4141 Q493.5313,711.3359 493.5313,710.0547 L493.5313,708.8984 Q493.5313,707.5703 494.1406,706.4297 Q494.7656,705.2734 495.8594,704.6641 Q496.9531,704.0391 498.1875,704.0391 Q498.9219,704.0391 499.5625,704.2109 Q500.2188,704.3672 500.7656,704.7266 Z " fill="#000000"/><text fill="#000000" font-family="sans-serif" font-size="12" font-style="italic" lengthAdjust="spacing" textLength="85" x="519.5" y="704.957">&#171;Value Object&#187;</text><text fill="#000000" font-family="sans-serif" font-size="14" lengthAdjust="spacing" textLength="100" x="512" y="722.127">AccountNumber</text><line style="stroke:#181818;stroke-width:0.5;" x1="484" x2="614" y1="730.2031" y2="730.2031"/></g><!--class Balance--><g id="elem_Balance"><rect codeLine="26" fill="#F1F1F1" height="50.7031" id="Balance" rx="2.5" ry="2.5" style="stroke:#181818;stroke-width:0.5;" width="113" x="492.5" y="601.5"/><ellipse cx="507.5" cy="622.8516" fill="#ADD1B2" rx="11" ry="11" style="stroke:#181818;stroke-width:1.0;"/><path d="M510.2656,618.7266 Q510.4219,618.5078 510.6094,618.3984 Q510.7969,618.2891 511.0156,618.2891 Q511.3906,618.2891 511.625,618.5547 Q511.8594,618.8047 511.8594,619.4141 L511.8594,620.8672 Q511.8594,621.4766 511.625,621.7422 Q511.3906,622.0078 511.0156,622.0078 Q510.6719,622.0078 510.4688,621.8047 Q510.2656,621.6172 510.1563,621.1016 Q510.1094,620.7422 509.9219,620.5547 Q509.5938,620.1797 508.9844,619.9609 Q508.375,619.7422 507.75,619.7422 Q506.9844,619.7422 506.3438,620.0703 Q505.7188,620.3984 505.2188,621.1484 Q504.7344,621.8984 504.7344,622.9297 L504.7344,624.0234 Q504.7344,625.2578 505.625,626.0859 Q506.5156,626.8984 508.1094,626.8984 Q509.0469,626.8984 509.7031,626.6484 Q510.0938,626.4922 510.5156,626.0547 Q510.7813,625.7891 510.9219,625.7109 Q511.0781,625.6328 511.2813,625.6328 Q511.6094,625.6328 511.8594,625.8984 Q512.125,626.1484 512.125,626.4922 Q512.125,626.8359 511.7813,627.2422 Q511.2813,627.8203 510.4844,628.1484 Q509.4063,628.6016 508.1094,628.6016 Q506.5938,628.6016 505.3906,627.9766 Q504.4063,627.4766 503.7188,626.4141 Q503.0313,625.3359 503.0313,624.0547 L503.0313,622.8984 Q503.0313,621.5703 503.6406,620.4297 Q504.2656,619.2734 505.3594,618.6641 Q506.4531,618.0391 507.6875,618.0391 Q508.4219,618.0391 509.0625,618.2109 Q509.7188,618.3672 510.2656,618.7266 Z " fill="#000000"/><text fill="#000000" font-family="sans-serif" font-size="12" font-style="italic" lengthAdjust="spacing" textLength="85" x="519.5" y="618.957">&#171;Value Object&#187;</text><text fill="#000000" font-family="sans-serif" font-size="14" lengthAdjust="spacing" textLength="51" x="536.5" y="636.127">Balance</text><line style="stroke:#181818;stroke-width:0.5;" x1="493.5" x2="604.5" y1="644.2031" y2="644.2031"/></g><!--class Currency--><g id="elem_Currency"><rect codeLine="29" fill="#F1F1F1" height="50.7031" id="Currency" rx="2.5" ry="2.5" style="stroke:#181818;stroke-width:0.5;" width="113" x="492.5" y="515.5"/><ellipse cx="507.5" cy="536.8516" fill="#ADD1B2" rx="11" ry="11" style="stroke:#181818;stroke-width:1.0;"/><path d="M510.2656,532.7266 Q510.4219,532.5078 510.6094,532.3984 Q510.7969,532.2891 511.0156,532.2891 Q511.3906,532.2891 511.625,532.5547 Q511.8594,532.8047 511.8594,533.4141 L511.8594,534.8672 Q511.8594,535.4766 511.625,535.7422 Q511.3906,536.0078 511.0156,536.0078 Q510.6719,536.0078 510.4688,535.8047 Q510.2656,535.6172 510.1563,535.1016 Q510.1094,534.7422 509.9219,534.5547 Q509.5938,534.1797 508.9844,533.9609 Q508.375,533.7422 507.75,533.7422 Q506.9844,533.7422 506.3438,534.0703 Q505.7188,534.3984 505.2188,535.1484 Q504.7344,535.8984 504.7344,536.9297 L504.7344,538.0234 Q504.7344,539.2578 505.625,540.0859 Q506.5156,540.8984 508.1094,540.8984 Q509.0469,540.8984 509.7031,540.6484 Q510.0938,540.4922 510.5156,540.0547 Q510.7813,539.7891 510.9219,539.7109 Q511.0781,539.6328 511.2813,539.6328 Q511.6094,539.6328 511.8594,539.8984 Q512.125,540.1484 512.125,540.4922 Q512.125,540.8359 511.7813,541.2422 Q511.2813,541.8203 510.4844,542.1484 Q509.4063,542.6016 508.1094,542.6016 Q506.5938,542.6016 505.3906,541.9766 Q504.4063,541.4766 503.7188,540.4141 Q503.0313,539.3359 503.0313,538.0547 L503.0313,536.8984 Q503.0313,535.5703 503.6406,534.4297 Q504.2656,533.2734 505.3594,532.6641 Q506.4531,532.0391 507.6875,532.0391 Q508.4219,532.0391 509.0625,532.2109 Q509.7188,532.3672 510.2656,532.7266 Z " fill="#000000"/><text fill="#000000" font-family="sans-serif" font-size="12" font-style="italic" lengthAdjust="spacing" textLength="85" x="519.5" y="532.957">&#171;Value Object&#187;</text><text fill="#000000" font-family="sans-serif" font-size="14" lengthAdjust="spacing" textLength="58" x="533" y="550.127">Currency</text><line style="stroke:#181818;stroke-width:0.5;" x1="493.5" x2="604.5" y1="558.2031" y2="558.2031"/></g><!--class InstitutionName--><g id="elem_InstitutionName"><rect codeLine="32" fill="#F1F1F1" height="50.7031" id="InstitutionName" rx="2.5" ry="2.5" style="stroke:#181818;stroke-width:0.5;" width="128" x="781" y="857.5"/><ellipse cx="796" cy="878.8516" fill="#ADD1B2" rx="11" ry="11" style="stroke:#181818;stroke-width:1.0;"/><path d="M798.7656,874.7266 Q798.9219,874.5078 799.1094,874.3984 Q799.2969,874.2891 799.5156,874.2891 Q799.8906,874.2891 800.125,874.5547 Q800.3594,874.8047 800.3594,875.4141 L800.3594,876.8672 Q800.3594,877.4766 800.125,877.7422 Q799.8906,878.0078 799.5156,878.0078 Q799.1719,878.0078 798.9688,877.8047 Q798.7656,877.6172 798.6563,877.1016 Q798.6094,876.7422 798.4219,876.5547 Q798.0938,876.1797 797.4844,875.9609 Q796.875,875.7422 796.25,875.7422 Q795.4844,875.7422 794.8438,876.0703 Q794.2188,876.3984 793.7188,877.1484 Q793.2344,877.8984 793.2344,878.9297 L793.2344,880.0234 Q793.2344,881.2578 794.125,882.0859 Q795.0156,882.8984 796.6094,882.8984 Q797.5469,882.8984 798.2031,882.6484 Q798.5938,882.4922 799.0156,882.0547 Q799.2813,881.7891 799.4219,881.7109 Q799.5781,881.6328 799.7813,881.6328 Q800.1094,881.6328 800.3594,881.8984 Q800.625,882.1484 800.625,882.4922 Q800.625,882.8359 800.2813,883.2422 Q799.7813,883.8203 798.9844,884.1484 Q797.9063,884.6016 796.6094,884.6016 Q795.0938,884.6016 793.8906,883.9766 Q792.9063,883.4766 792.2188,882.4141 Q791.5313,881.3359 791.5313,880.0547 L791.5313,878.8984 Q791.5313,877.5703 792.1406,876.4297 Q792.7656,875.2734 793.8594,874.6641 Q794.9531,874.0391 796.1875,874.0391 Q796.9219,874.0391 797.5625,874.2109 Q798.2188,874.3672 798.7656,874.7266 Z " fill="#000000"/><text fill="#000000" font-family="sans-serif" font-size="12" font-style="italic" lengthAdjust="spacing" textLength="85" x="815.5" y="874.957">&#171;Value Object&#187;</text><text fill="#000000" font-family="sans-serif" font-size="14" lengthAdjust="spacing" textLength="96" x="810" y="892.127">InstitutionName</text><line style="stroke:#181818;stroke-width:0.5;" x1="782" x2="908" y1="900.2031" y2="900.2031"/></g><!--class Country--><g id="elem_Country"><rect codeLine="35" fill="#F1F1F1" height="50.7031" id="Country" rx="2.5" ry="2.5" style="stroke:#181818;stroke-width:0.5;" width="113" x="788.5" y="771.5"/><ellipse cx="803.5" cy="792.8516" fill="#ADD1B2" rx="11" ry="11" style="stroke:#181818;stroke-width:1.0;"/><path d="M806.2656,788.7266 Q806.4219,788.5078 806.6094,788.3984 Q806.7969,788.2891 807.0156,788.2891 Q807.3906,788.2891 807.625,788.5547 Q807.8594,788.8047 807.8594,789.4141 L807.8594,790.8672 Q807.8594,791.4766 807.625,791.7422 Q807.3906,792.0078 807.0156,792.0078 Q806.6719,792.0078 806.4688,791.8047 Q806.2656,791.6172 806.1563,791.1016 Q806.1094,790.7422 805.9219,790.5547 Q805.5938,790.1797 804.9844,789.9609 Q804.375,789.7422 803.75,789.7422 Q802.9844,789.7422 802.3438,790.0703 Q801.7188,790.3984 801.2188,791.1484 Q800.7344,791.8984 800.7344,792.9297 L800.7344,794.0234 Q800.7344,795.2578 801.625,796.0859 Q802.5156,796.8984 804.1094,796.8984 Q805.0469,796.8984 805.7031,796.6484 Q806.0938,796.4922 806.5156,796.0547 Q806.7813,795.7891 806.9219,795.7109 Q807.0781,795.6328 807.2813,795.6328 Q807.6094,795.6328 807.8594,795.8984 Q808.125,796.1484 808.125,796.4922 Q808.125,796.8359 807.7813,797.2422 Q807.2813,797.8203 806.4844,798.1484 Q805.4063,798.6016 804.1094,798.6016 Q802.5938,798.6016 801.3906,797.9766 Q800.4063,797.4766 799.7188,796.4141 Q799.0313,795.3359 799.0313,794.0547 L799.0313,792.8984 Q799.0313,791.5703 799.6406,790.4297 Q800.2656,789.2734 801.3594,788.6641 Q802.4531,788.0391 803.6875,788.0391 Q804.4219,788.0391 805.0625,788.2109 Q805.7188,788.3672 806.2656,788.7266 Z " fill="#000000"/><text fill="#000000" font-family="sans-serif" font-size="12" font-style="italic" lengthAdjust="spacing" textLength="85" x="815.5" y="788.957">&#171;Value Object&#187;</text><text fill="#000000" font-family="sans-serif" font-size="14" lengthAdjust="spacing" textLength="50" x="833" y="806.127">Country</text><line style="stroke:#181818;stroke-width:0.5;" x1="789.5" x2="900.5" y1="814.2031" y2="814.2031"/></g><!--class Description--><g id="elem_Description"><rect codeLine="38" fill="#F1F1F1" height="50.7031" id="Description" rx="2.5" ry="2.5" style="stroke:#181818;stroke-width:0.5;" width="113" x="492.5" y="429.5"/><ellipse cx="507.5" cy="450.8516" fill="#ADD1B2" rx="11" ry="11" style="stroke:#181818;stroke-width:1.0;"/><path d="M510.2656,446.7266 Q510.4219,446.5078 510.6094,446.3984 Q510.7969,446.2891 511.0156,446.2891 Q511.3906,446.2891 511.625,446.5547 Q511.8594,446.8047 511.8594,447.4141 L511.8594,448.8672 Q511.8594,449.4766 511.625,449.7422 Q511.3906,450.0078 511.0156,450.0078 Q510.6719,450.0078 510.4688,449.8047 Q510.2656,449.6172 510.1563,449.1016 Q510.1094,448.7422 509.9219,448.5547 Q509.5938,448.1797 508.9844,447.9609 Q508.375,447.7422 507.75,447.7422 Q506.9844,447.7422 506.3438,448.0703 Q505.7188,448.3984 505.2188,449.1484 Q504.7344,449.8984 504.7344,450.9297 L504.7344,452.0234 Q504.7344,453.2578 505.625,454.0859 Q506.5156,454.8984 508.1094,454.8984 Q509.0469,454.8984 509.7031,454.6484 Q510.0938,454.4922 510.5156,454.0547 Q510.7813,453.7891 510.9219,453.7109 Q511.0781,453.6328 511.2813,453.6328 Q511.6094,453.6328 511.8594,453.8984 Q512.125,454.1484 512.125,454.4922 Q512.125,454.8359 511.7813,455.2422 Q511.2813,455.8203 510.4844,456.1484 Q509.4063,456.6016 508.1094,456.6016 Q506.5938,456.6016 505.3906,455.9766 Q504.4063,455.4766 503.7188,454.4141 Q503.0313,453.3359 503.0313,452.0547 L503.0313,450.8984 Q503.0313,449.5703 503.6406,448.4297 Q504.2656,447.2734 505.3594,446.6641 Q506.4531,446.0391 507.6875,446.0391 Q508.4219,446.0391 509.0625,446.2109 Q509.7188,446.3672 510.2656,446.7266 Z " fill="#000000"/><text fill="#000000" font-family="sans-serif" font-size="12" font-style="italic" lengthAdjust="spacing" textLength="85" x="519.5" y="446.957">&#171;Value Object&#187;</text><text fill="#000000" font-family="sans-serif" font-size="14" lengthAdjust="spacing" textLength="71" x="526.5" y="464.127">Description</text><line style="stroke:#181818;stroke-width:0.5;" x1="493.5" x2="604.5" y1="472.2031" y2="472.2031"/></g><!--class IBAN--><g id="elem_IBAN"><rect codeLine="41" fill="#F1F1F1" height="50.7031" id="IBAN" rx="2.5" ry="2.5" style="stroke:#181818;stroke-width:0.5;" width="113" x="492.5" y="343.5"/><ellipse cx="507.5" cy="364.8516" fill="#ADD1B2" rx="11" ry="11" style="stroke:#181818;stroke-width:1.0;"/><path d="M510.2656,360.7266 Q510.4219,360.5078 510.6094,360.3984 Q510.7969,360.2891 511.0156,360.2891 Q511.3906,360.2891 511.625,360.5547 Q511.8594,360.8047 511.8594,361.4141 L511.8594,362.8672 Q511.8594,363.4766 511.625,363.7422 Q511.3906,364.0078 511.0156,364.0078 Q510.6719,364.0078 510.4688,363.8047 Q510.2656,363.6172 510.1563,363.1016 Q510.1094,362.7422 509.9219,362.5547 Q509.5938,362.1797 508.9844,361.9609 Q508.375,361.7422 507.75,361.7422 Q506.9844,361.7422 506.3438,362.0703 Q505.7188,362.3984 505.2188,363.1484 Q504.7344,363.8984 504.7344,364.9297 L504.7344,366.0234 Q504.7344,367.2578 505.625,368.0859 Q506.5156,368.8984 508.1094,368.8984 Q509.0469,368.8984 509.7031,368.6484 Q510.0938,368.4922 510.5156,368.0547 Q510.7813,367.7891 510.9219,367.7109 Q511.0781,367.6328 511.2813,367.6328 Q511.6094,367.6328 511.8594,367.8984 Q512.125,368.1484 512.125,368.4922 Q512.125,368.8359 511.7813,369.2422 Q511.2813,369.8203 510.4844,370.1484 Q509.4063,370.6016 508.1094,370.6016 Q506.5938,370.6016 505.3906,369.9766 Q504.4063,369.4766 503.7188,368.4141 Q503.0313,367.3359 503.0313,366.0547 L503.0313,364.8984 Q503.0313,363.5703 503.6406,362.4297 Q504.2656,361.2734 505.3594,360.6641 Q506.4531,360.0391 507.6875,360.0391 Q508.4219,360.0391 509.0625,360.2109 Q509.7188,360.3672 510.2656,360.7266 Z " fill="#000000"/><text fill="#000000" font-family="sans-serif" font-size="12" font-style="italic" lengthAdjust="spacing" textLength="85" x="519.5" y="360.957">&#171;Value Object&#187;</text><text fill="#000000" font-family="sans-serif" font-size="14" lengthAdjust="spacing" textLength="30" x="547" y="378.127">IBAN</text><line style="stroke:#181818;stroke-width:0.5;" x1="493.5" x2="604.5" y1="386.2031" y2="386.2031"/></g><!--class Transaction--><g id="elem_Transaction"><rect codeLine="63" fill="#F1F1F1" height="50.7031" id="Transaction" rx="2.5" ry="2.5" style="stroke:#181818;stroke-width:0.5;" width="107" x="495.5" y="1169.5"/><ellipse cx="510.5" cy="1190.8516" fill="#ADD1B2" rx="11" ry="11" style="stroke:#181818;stroke-width:1.0;"/><path d="M513.2656,1186.7266 Q513.4219,1186.5078 513.6094,1186.3984 Q513.7969,1186.2891 514.0156,1186.2891 Q514.3906,1186.2891 514.625,1186.5547 Q514.8594,1186.8047 514.8594,1187.4141 L514.8594,1188.8672 Q514.8594,1189.4766 514.625,1189.7422 Q514.3906,1190.0078 514.0156,1190.0078 Q513.6719,1190.0078 513.4688,1189.8047 Q513.2656,1189.6172 513.1563,1189.1016 Q513.1094,1188.7422 512.9219,1188.5547 Q512.5938,1188.1797 511.9844,1187.9609 Q511.375,1187.7422 510.75,1187.7422 Q509.9844,1187.7422 509.3438,1188.0703 Q508.7188,1188.3984 508.2188,1189.1484 Q507.7344,1189.8984 507.7344,1190.9297 L507.7344,1192.0234 Q507.7344,1193.2578 508.625,1194.0859 Q509.5156,1194.8984 511.1094,1194.8984 Q512.0469,1194.8984 512.7031,1194.6484 Q513.0938,1194.4922 513.5156,1194.0547 Q513.7813,1193.7891 513.9219,1193.7109 Q514.0781,1193.6328 514.2813,1193.6328 Q514.6094,1193.6328 514.8594,1193.8984 Q515.125,1194.1484 515.125,1194.4922 Q515.125,1194.8359 514.7813,1195.2422 Q514.2813,1195.8203 513.4844,1196.1484 Q512.4063,1196.6016 511.1094,1196.6016 Q509.5938,1196.6016 508.3906,1195.9766 Q507.4063,1195.4766 506.7188,1194.4141 Q506.0313,1193.3359 506.0313,1192.0547 L506.0313,1190.8984 Q506.0313,1189.5703 506.6406,1188.4297 Q507.2656,1187.2734 508.3594,1186.6641 Q509.4531,1186.0391 510.6875,1186.0391 Q511.4219,1186.0391 512.0625,1186.2109 Q512.7188,1186.3672 513.2656,1186.7266 Z " fill="#000000"/><text fill="#000000" font-family="sans-serif" font-size="12" font-style="italic" lengthAdjust="spacing" textLength="73" x="525.5" y="1186.957">&#171;Entity Root&#187;</text><text fill="#000000" font-family="sans-serif" font-size="14" lengthAdjust="spacing" textLength="75" x="524.5" y="1204.127">Transaction</text><line style="stroke:#181818;stroke-width:0.5;" x1="496.5" x2="601.5" y1="1212.2031" y2="1212.2031"/></g><!--class Ammount--><g id="elem_Ammount"><rect codeLine="66" fill="#F1F1F1" height="50.7031" id="Ammount" rx="2.5" ry="2.5" style="stroke:#181818;stroke-width:0.5;" width="113" x="492.5" y="1298.5"/><ellipse cx="507.5" cy="1319.8516" fill="#ADD1B2" rx="11" ry="11" style="stroke:#181818;stroke-width:1.0;"/><path d="M510.2656,1315.7266 Q510.4219,1315.5078 510.6094,1315.3984 Q510.7969,1315.2891 511.0156,1315.2891 Q511.3906,1315.2891 511.625,1315.5547 Q511.8594,1315.8047 511.8594,1316.4141 L511.8594,1317.8672 Q511.8594,1318.4766 511.625,1318.7422 Q511.3906,1319.0078 511.0156,1319.0078 Q510.6719,1319.0078 510.4688,1318.8047 Q510.2656,1318.6172 510.1563,1318.1016 Q510.1094,1317.7422 509.9219,1317.5547 Q509.5938,1317.1797 508.9844,1316.9609 Q508.375,1316.7422 507.75,1316.7422 Q506.9844,1316.7422 506.3438,1317.0703 Q505.7188,1317.3984 505.2188,1318.1484 Q504.7344,1318.8984 504.7344,1319.9297 L504.7344,1321.0234 Q504.7344,1322.2578 505.625,1323.0859 Q506.5156,1323.8984 508.1094,1323.8984 Q509.0469,1323.8984 509.7031,1323.6484 Q510.0938,1323.4922 510.5156,1323.0547 Q510.7813,1322.7891 510.9219,1322.7109 Q511.0781,1322.6328 511.2813,1322.6328 Q511.6094,1322.6328 511.8594,1322.8984 Q512.125,1323.1484 512.125,1323.4922 Q512.125,1323.8359 511.7813,1324.2422 Q511.2813,1324.8203 510.4844,1325.1484 Q509.4063,1325.6016 508.1094,1325.6016 Q506.5938,1325.6016 505.3906,1324.9766 Q504.4063,1324.4766 503.7188,1323.4141 Q503.0313,1322.3359 503.0313,1321.0547 L503.0313,1319.8984 Q503.0313,1318.5703 503.6406,1317.4297 Q504.2656,1316.2734 505.3594,1315.6641 Q506.4531,1315.0391 507.6875,1315.0391 Q508.4219,1315.0391 509.0625,1315.2109 Q509.7188,1315.3672 510.2656,1315.7266 Z " fill="#000000"/><text fill="#000000" font-family="sans-serif" font-size="12" font-style="italic" lengthAdjust="spacing" textLength="85" x="519.5" y="1315.957">&#171;Value Object&#187;</text><text fill="#000000" font-family="sans-serif" font-size="14" lengthAdjust="spacing" textLength="59" x="532.5" y="1333.127">Ammount</text><line style="stroke:#181818;stroke-width:0.5;" x1="493.5" x2="604.5" y1="1341.2031" y2="1341.2031"/></g><!--class Date--><g id="elem_Date"><rect codeLine="69" fill="#F1F1F1" height="50.7031" id="Date" rx="2.5" ry="2.5" style="stroke:#181818;stroke-width:0.5;" width="113" x="788.5" y="1380.5"/><ellipse cx="803.5" cy="1401.8516" fill="#ADD1B2" rx="11" ry="11" style="stroke:#181818;stroke-width:1.0;"/><path d="M806.2656,1397.7266 Q806.4219,1397.5078 806.6094,1397.3984 Q806.7969,1397.2891 807.0156,1397.2891 Q807.3906,1397.2891 807.625,1397.5547 Q807.8594,1397.8047 807.8594,1398.4141 L807.8594,1399.8672 Q807.8594,1400.4766 807.625,1400.7422 Q807.3906,1401.0078 807.0156,1401.0078 Q806.6719,1401.0078 806.4688,1400.8047 Q806.2656,1400.6172 806.1563,1400.1016 Q806.1094,1399.7422 805.9219,1399.5547 Q805.5938,1399.1797 804.9844,1398.9609 Q804.375,1398.7422 803.75,1398.7422 Q802.9844,1398.7422 802.3438,1399.0703 Q801.7188,1399.3984 801.2188,1400.1484 Q800.7344,1400.8984 800.7344,1401.9297 L800.7344,1403.0234 Q800.7344,1404.2578 801.625,1405.0859 Q802.5156,1405.8984 804.1094,1405.8984 Q805.0469,1405.8984 805.7031,1405.6484 Q806.0938,1405.4922 806.5156,1405.0547 Q806.7813,1404.7891 806.9219,1404.7109 Q807.0781,1404.6328 807.2813,1404.6328 Q807.6094,1404.6328 807.8594,1404.8984 Q808.125,1405.1484 808.125,1405.4922 Q808.125,1405.8359 807.7813,1406.2422 Q807.2813,1406.8203 806.4844,1407.1484 Q805.4063,1407.6016 804.1094,1407.6016 Q802.5938,1407.6016 801.3906,1406.9766 Q800.4063,1406.4766 799.7188,1405.4141 Q799.0313,1404.3359 799.0313,1403.0547 L799.0313,1401.8984 Q799.0313,1400.5703 799.6406,1399.4297 Q800.2656,1398.2734 801.3594,1397.6641 Q802.4531,1397.0391 803.6875,1397.0391 Q804.4219,1397.0391 805.0625,1397.2109 Q805.7188,1397.3672 806.2656,1397.7266 Z " fill="#000000"/><text fill="#000000" font-family="sans-serif" font-size="12" font-style="italic" lengthAdjust="spacing" textLength="85" x="815.5" y="1397.957">&#171;Value Object&#187;</text><text fill="#000000" font-family="sans-serif" font-size="14" lengthAdjust="spacing" textLength="30" x="843" y="1415.127">Date</text><line style="stroke:#181818;stroke-width:0.5;" x1="789.5" x2="900.5" y1="1423.2031" y2="1423.2031"/></g><!--class TransactionDescription--><g id="elem_TransactionDescription"><rect codeLine="72" fill="#F1F1F1" height="50.7031" id="TransactionDescription" rx="2.5" ry="2.5" style="stroke:#181818;stroke-width:0.5;" width="178" x="756" y="1294.5"/><ellipse cx="771" cy="1315.8516" fill="#ADD1B2" rx="11" ry="11" style="stroke:#181818;stroke-width:1.0;"/><path d="M773.7656,1311.7266 Q773.9219,1311.5078 774.1094,1311.3984 Q774.2969,1311.2891 774.5156,1311.2891 Q774.8906,1311.2891 775.125,1311.5547 Q775.3594,1311.8047 775.3594,1312.4141 L775.3594,1313.8672 Q775.3594,1314.4766 775.125,1314.7422 Q774.8906,1315.0078 774.5156,1315.0078 Q774.1719,1315.0078 773.9688,1314.8047 Q773.7656,1314.6172 773.6563,1314.1016 Q773.6094,1313.7422 773.4219,1313.5547 Q773.0938,1313.1797 772.4844,1312.9609 Q771.875,1312.7422 771.25,1312.7422 Q770.4844,1312.7422 769.8438,1313.0703 Q769.2188,1313.3984 768.7188,1314.1484 Q768.2344,1314.8984 768.2344,1315.9297 L768.2344,1317.0234 Q768.2344,1318.2578 769.125,1319.0859 Q770.0156,1319.8984 771.6094,1319.8984 Q772.5469,1319.8984 773.2031,1319.6484 Q773.5938,1319.4922 774.0156,1319.0547 Q774.2813,1318.7891 774.4219,1318.7109 Q774.5781,1318.6328 774.7813,1318.6328 Q775.1094,1318.6328 775.3594,1318.8984 Q775.625,1319.1484 775.625,1319.4922 Q775.625,1319.8359 775.2813,1320.2422 Q774.7813,1320.8203 773.9844,1321.1484 Q772.9063,1321.6016 771.6094,1321.6016 Q770.0938,1321.6016 768.8906,1320.9766 Q767.9063,1320.4766 767.2188,1319.4141 Q766.5313,1318.3359 766.5313,1317.0547 L766.5313,1315.8984 Q766.5313,1314.5703 767.1406,1313.4297 Q767.7656,1312.2734 768.8594,1311.6641 Q769.9531,1311.0391 771.1875,1311.0391 Q771.9219,1311.0391 772.5625,1311.2109 Q773.2188,1311.3672 773.7656,1311.7266 Z " fill="#000000"/><text fill="#000000" font-family="sans-serif" font-size="12" font-style="italic" lengthAdjust="spacing" textLength="85" x="815.5" y="1311.957">&#171;Value Object&#187;</text><text fill="#000000" font-family="sans-serif" font-size="14" lengthAdjust="spacing" textLength="146" x="785" y="1329.127">TransactionDescription</text><line style="stroke:#181818;stroke-width:0.5;" x1="757" x2="933" y1="1337.2031" y2="1337.2031"/></g><!--class TransactionCurrency--><g id="elem_TransactionCurrency"><rect codeLine="75" fill="#F1F1F1" height="50.7031" id="TransactionCurrency" rx="2.5" ry="2.5" style="stroke:#181818;stroke-width:0.5;" width="165" x="762.5" y="1208.5"/><ellipse cx="777.5" cy="1229.8516" fill="#ADD1B2" rx="11" ry="11" style="stroke:#181818;stroke-width:1.0;"/><path d="M780.2656,1225.7266 Q780.4219,1225.5078 780.6094,1225.3984 Q780.7969,1225.2891 781.0156,1225.2891 Q781.3906,1225.2891 781.625,1225.5547 Q781.8594,1225.8047 781.8594,1226.4141 L781.8594,1227.8672 Q781.8594,1228.4766 781.625,1228.7422 Q781.3906,1229.0078 781.0156,1229.0078 Q780.6719,1229.0078 780.4688,1228.8047 Q780.2656,1228.6172 780.1563,1228.1016 Q780.1094,1227.7422 779.9219,1227.5547 Q779.5938,1227.1797 778.9844,1226.9609 Q778.375,1226.7422 777.75,1226.7422 Q776.9844,1226.7422 776.3438,1227.0703 Q775.7188,1227.3984 775.2188,1228.1484 Q774.7344,1228.8984 774.7344,1229.9297 L774.7344,1231.0234 Q774.7344,1232.2578 775.625,1233.0859 Q776.5156,1233.8984 778.1094,1233.8984 Q779.0469,1233.8984 779.7031,1233.6484 Q780.0938,1233.4922 780.5156,1233.0547 Q780.7813,1232.7891 780.9219,1232.7109 Q781.0781,1232.6328 781.2813,1232.6328 Q781.6094,1232.6328 781.8594,1232.8984 Q782.125,1233.1484 782.125,1233.4922 Q782.125,1233.8359 781.7813,1234.2422 Q781.2813,1234.8203 780.4844,1235.1484 Q779.4063,1235.6016 778.1094,1235.6016 Q776.5938,1235.6016 775.3906,1234.9766 Q774.4063,1234.4766 773.7188,1233.4141 Q773.0313,1232.3359 773.0313,1231.0547 L773.0313,1229.8984 Q773.0313,1228.5703 773.6406,1227.4297 Q774.2656,1226.2734 775.3594,1225.6641 Q776.4531,1225.0391 777.6875,1225.0391 Q778.4219,1225.0391 779.0625,1225.2109 Q779.7188,1225.3672 780.2656,1225.7266 Z " fill="#000000"/><text fill="#000000" font-family="sans-serif" font-size="12" font-style="italic" lengthAdjust="spacing" textLength="85" x="815.5" y="1225.957">&#171;Value Object&#187;</text><text fill="#000000" font-family="sans-serif" font-size="14" lengthAdjust="spacing" textLength="133" x="791.5" y="1243.127">TransactionCurrency</text><line style="stroke:#181818;stroke-width:0.5;" x1="763.5" x2="926.5" y1="1251.2031" y2="1251.2031"/></g><!--class TransactionBalance--><g id="elem_TransactionBalance"><rect codeLine="78" fill="#F1F1F1" height="50.7031" id="TransactionBalance" rx="2.5" ry="2.5" style="stroke:#181818;stroke-width:0.5;" width="158" x="766" y="1122.5"/><ellipse cx="781" cy="1143.8516" fill="#ADD1B2" rx="11" ry="11" style="stroke:#181818;stroke-width:1.0;"/><path d="M783.7656,1139.7266 Q783.9219,1139.5078 784.1094,1139.3984 Q784.2969,1139.2891 784.5156,1139.2891 Q784.8906,1139.2891 785.125,1139.5547 Q785.3594,1139.8047 785.3594,1140.4141 L785.3594,1141.8672 Q785.3594,1142.4766 785.125,1142.7422 Q784.8906,1143.0078 784.5156,1143.0078 Q784.1719,1143.0078 783.9688,1142.8047 Q783.7656,1142.6172 783.6563,1142.1016 Q783.6094,1141.7422 783.4219,1141.5547 Q783.0938,1141.1797 782.4844,1140.9609 Q781.875,1140.7422 781.25,1140.7422 Q780.4844,1140.7422 779.8438,1141.0703 Q779.2188,1141.3984 778.7188,1142.1484 Q778.2344,1142.8984 778.2344,1143.9297 L778.2344,1145.0234 Q778.2344,1146.2578 779.125,1147.0859 Q780.0156,1147.8984 781.6094,1147.8984 Q782.5469,1147.8984 783.2031,1147.6484 Q783.5938,1147.4922 784.0156,1147.0547 Q784.2813,1146.7891 784.4219,1146.7109 Q784.5781,1146.6328 784.7813,1146.6328 Q785.1094,1146.6328 785.3594,1146.8984 Q785.625,1147.1484 785.625,1147.4922 Q785.625,1147.8359 785.2813,1148.2422 Q784.7813,1148.8203 783.9844,1149.1484 Q782.9063,1149.6016 781.6094,1149.6016 Q780.0938,1149.6016 778.8906,1148.9766 Q777.9063,1148.4766 777.2188,1147.4141 Q776.5313,1146.3359 776.5313,1145.0547 L776.5313,1143.8984 Q776.5313,1142.5703 777.1406,1141.4297 Q777.7656,1140.2734 778.8594,1139.6641 Q779.9531,1139.0391 781.1875,1139.0391 Q781.9219,1139.0391 782.5625,1139.2109 Q783.2188,1139.3672 783.7656,1139.7266 Z " fill="#000000"/><text fill="#000000" font-family="sans-serif" font-size="12" font-style="italic" lengthAdjust="spacing" textLength="85" x="815.5" y="1139.957">&#171;Value Object&#187;</text><text fill="#000000" font-family="sans-serif" font-size="14" lengthAdjust="spacing" textLength="126" x="795" y="1157.127">TransactionBalance</text><line style="stroke:#181818;stroke-width:0.5;" x1="767" x2="923" y1="1165.2031" y2="1165.2031"/></g><!--class Type--><g id="elem_Type"><rect codeLine="81" fill="#F1F1F1" height="50.7031" id="Type" rx="2.5" ry="2.5" style="stroke:#181818;stroke-width:0.5;" width="113" x="788.5" y="1036.5"/><ellipse cx="803.5" cy="1057.8516" fill="#ADD1B2" rx="11" ry="11" style="stroke:#181818;stroke-width:1.0;"/><path d="M806.2656,1053.7266 Q806.4219,1053.5078 806.6094,1053.3984 Q806.7969,1053.2891 807.0156,1053.2891 Q807.3906,1053.2891 807.625,1053.5547 Q807.8594,1053.8047 807.8594,1054.4141 L807.8594,1055.8672 Q807.8594,1056.4766 807.625,1056.7422 Q807.3906,1057.0078 807.0156,1057.0078 Q806.6719,1057.0078 806.4688,1056.8047 Q806.2656,1056.6172 806.1563,1056.1016 Q806.1094,1055.7422 805.9219,1055.5547 Q805.5938,1055.1797 804.9844,1054.9609 Q804.375,1054.7422 803.75,1054.7422 Q802.9844,1054.7422 802.3438,1055.0703 Q801.7188,1055.3984 801.2188,1056.1484 Q800.7344,1056.8984 800.7344,1057.9297 L800.7344,1059.0234 Q800.7344,1060.2578 801.625,1061.0859 Q802.5156,1061.8984 804.1094,1061.8984 Q805.0469,1061.8984 805.7031,1061.6484 Q806.0938,1061.4922 806.5156,1061.0547 Q806.7813,1060.7891 806.9219,1060.7109 Q807.0781,1060.6328 807.2813,1060.6328 Q807.6094,1060.6328 807.8594,1060.8984 Q808.125,1061.1484 808.125,1061.4922 Q808.125,1061.8359 807.7813,1062.2422 Q807.2813,1062.8203 806.4844,1063.1484 Q805.4063,1063.6016 804.1094,1063.6016 Q802.5938,1063.6016 801.3906,1062.9766 Q800.4063,1062.4766 799.7188,1061.4141 Q799.0313,1060.3359 799.0313,1059.0547 L799.0313,1057.8984 Q799.0313,1056.5703 799.6406,1055.4297 Q800.2656,1054.2734 801.3594,1053.6641 Q802.4531,1053.0391 803.6875,1053.0391 Q804.4219,1053.0391 805.0625,1053.2109 Q805.7188,1053.3672 806.2656,1053.7266 Z " fill="#000000"/><text fill="#000000" font-family="sans-serif" font-size="12" font-style="italic" lengthAdjust="spacing" textLength="85" x="815.5" y="1053.957">&#171;Value Object&#187;</text><text fill="#000000" font-family="sans-serif" font-size="14" lengthAdjust="spacing" textLength="32" x="842" y="1071.127">Type</text><line style="stroke:#181818;stroke-width:0.5;" x1="789.5" x2="900.5" y1="1079.2031" y2="1079.2031"/></g><!--class Payment--><g id="elem_Payment"><rect codeLine="93" fill="#F1F1F1" height="50.7031" id="Payment" rx="2.5" ry="2.5" style="stroke:#181818;stroke-width:0.5;" width="101" x="245" y="1551.5"/><ellipse cx="260" cy="1572.8516" fill="#ADD1B2" rx="11" ry="11" style="stroke:#181818;stroke-width:1.0;"/><path d="M262.7656,1568.7266 Q262.9219,1568.5078 263.1094,1568.3984 Q263.2969,1568.2891 263.5156,1568.2891 Q263.8906,1568.2891 264.125,1568.5547 Q264.3594,1568.8047 264.3594,1569.4141 L264.3594,1570.8672 Q264.3594,1571.4766 264.125,1571.7422 Q263.8906,1572.0078 263.5156,1572.0078 Q263.1719,1572.0078 262.9688,1571.8047 Q262.7656,1571.6172 262.6563,1571.1016 Q262.6094,1570.7422 262.4219,1570.5547 Q262.0938,1570.1797 261.4844,1569.9609 Q260.875,1569.7422 260.25,1569.7422 Q259.4844,1569.7422 258.8438,1570.0703 Q258.2188,1570.3984 257.7188,1571.1484 Q257.2344,1571.8984 257.2344,1572.9297 L257.2344,1574.0234 Q257.2344,1575.2578 258.125,1576.0859 Q259.0156,1576.8984 260.6094,1576.8984 Q261.5469,1576.8984 262.2031,1576.6484 Q262.5938,1576.4922 263.0156,1576.0547 Q263.2813,1575.7891 263.4219,1575.7109 Q263.5781,1575.6328 263.7813,1575.6328 Q264.1094,1575.6328 264.3594,1575.8984 Q264.625,1576.1484 264.625,1576.4922 Q264.625,1576.8359 264.2813,1577.2422 Q263.7813,1577.8203 262.9844,1578.1484 Q261.9063,1578.6016 260.6094,1578.6016 Q259.0938,1578.6016 257.8906,1577.9766 Q256.9063,1577.4766 256.2188,1576.4141 Q255.5313,1575.3359 255.5313,1574.0547 L255.5313,1572.8984 Q255.5313,1571.5703 256.1406,1570.4297 Q256.7656,1569.2734 257.8594,1568.6641 Q258.9531,1568.0391 260.1875,1568.0391 Q260.9219,1568.0391 261.5625,1568.2109 Q262.2188,1568.3672 262.7656,1568.7266 Z " fill="#000000"/><text fill="#000000" font-family="sans-serif" font-size="12" font-style="italic" lengthAdjust="spacing" textLength="73" x="272" y="1568.957">&#171;Entity Root&#187;</text><text fill="#000000" font-family="sans-serif" font-size="14" lengthAdjust="spacing" textLength="55" x="281" y="1586.127">Payment</text><line style="stroke:#181818;stroke-width:0.5;" x1="246" x2="345" y1="1594.2031" y2="1594.2031"/></g><!--class PaymentDescription--><g id="elem_PaymentDescription"><rect codeLine="96" fill="#F1F1F1" height="50.7031" id="PaymentDescription" rx="2.5" ry="2.5" style="stroke:#181818;stroke-width:0.5;" width="158" x="470" y="1766.5"/><ellipse cx="485" cy="1787.8516" fill="#ADD1B2" rx="11" ry="11" style="stroke:#181818;stroke-width:1.0;"/><path d="M487.7656,1783.7266 Q487.9219,1783.5078 488.1094,1783.3984 Q488.2969,1783.2891 488.5156,1783.2891 Q488.8906,1783.2891 489.125,1783.5547 Q489.3594,1783.8047 489.3594,1784.4141 L489.3594,1785.8672 Q489.3594,1786.4766 489.125,1786.7422 Q488.8906,1787.0078 488.5156,1787.0078 Q488.1719,1787.0078 487.9688,1786.8047 Q487.7656,1786.6172 487.6563,1786.1016 Q487.6094,1785.7422 487.4219,1785.5547 Q487.0938,1785.1797 486.4844,1784.9609 Q485.875,1784.7422 485.25,1784.7422 Q484.4844,1784.7422 483.8438,1785.0703 Q483.2188,1785.3984 482.7188,1786.1484 Q482.2344,1786.8984 482.2344,1787.9297 L482.2344,1789.0234 Q482.2344,1790.2578 483.125,1791.0859 Q484.0156,1791.8984 485.6094,1791.8984 Q486.5469,1791.8984 487.2031,1791.6484 Q487.5938,1791.4922 488.0156,1791.0547 Q488.2813,1790.7891 488.4219,1790.7109 Q488.5781,1790.6328 488.7813,1790.6328 Q489.1094,1790.6328 489.3594,1790.8984 Q489.625,1791.1484 489.625,1791.4922 Q489.625,1791.8359 489.2813,1792.2422 Q488.7813,1792.8203 487.9844,1793.1484 Q486.9063,1793.6016 485.6094,1793.6016 Q484.0938,1793.6016 482.8906,1792.9766 Q481.9063,1792.4766 481.2188,1791.4141 Q480.5313,1790.3359 480.5313,1789.0547 L480.5313,1787.8984 Q480.5313,1786.5703 481.1406,1785.4297 Q481.7656,1784.2734 482.8594,1783.6641 Q483.9531,1783.0391 485.1875,1783.0391 Q485.9219,1783.0391 486.5625,1783.2109 Q487.2188,1783.3672 487.7656,1783.7266 Z " fill="#000000"/><text fill="#000000" font-family="sans-serif" font-size="12" font-style="italic" lengthAdjust="spacing" textLength="85" x="519.5" y="1783.957">&#171;Value Object&#187;</text><text fill="#000000" font-family="sans-serif" font-size="14" lengthAdjust="spacing" textLength="126" x="499" y="1801.127">PaymentDescription</text><line style="stroke:#181818;stroke-width:0.5;" x1="471" x2="627" y1="1809.2031" y2="1809.2031"/></g><!--class PaymentCurrency--><g id="elem_PaymentCurrency"><rect codeLine="99" fill="#F1F1F1" height="50.7031" id="PaymentCurrency" rx="2.5" ry="2.5" style="stroke:#181818;stroke-width:0.5;" width="145" x="476.5" y="1680.5"/><ellipse cx="491.5" cy="1701.8516" fill="#ADD1B2" rx="11" ry="11" style="stroke:#181818;stroke-width:1.0;"/><path d="M494.2656,1697.7266 Q494.4219,1697.5078 494.6094,1697.3984 Q494.7969,1697.2891 495.0156,1697.2891 Q495.3906,1697.2891 495.625,1697.5547 Q495.8594,1697.8047 495.8594,1698.4141 L495.8594,1699.8672 Q495.8594,1700.4766 495.625,1700.7422 Q495.3906,1701.0078 495.0156,1701.0078 Q494.6719,1701.0078 494.4688,1700.8047 Q494.2656,1700.6172 494.1563,1700.1016 Q494.1094,1699.7422 493.9219,1699.5547 Q493.5938,1699.1797 492.9844,1698.9609 Q492.375,1698.7422 491.75,1698.7422 Q490.9844,1698.7422 490.3438,1699.0703 Q489.7188,1699.3984 489.2188,1700.1484 Q488.7344,1700.8984 488.7344,1701.9297 L488.7344,1703.0234 Q488.7344,1704.2578 489.625,1705.0859 Q490.5156,1705.8984 492.1094,1705.8984 Q493.0469,1705.8984 493.7031,1705.6484 Q494.0938,1705.4922 494.5156,1705.0547 Q494.7813,1704.7891 494.9219,1704.7109 Q495.0781,1704.6328 495.2813,1704.6328 Q495.6094,1704.6328 495.8594,1704.8984 Q496.125,1705.1484 496.125,1705.4922 Q496.125,1705.8359 495.7813,1706.2422 Q495.2813,1706.8203 494.4844,1707.1484 Q493.4063,1707.6016 492.1094,1707.6016 Q490.5938,1707.6016 489.3906,1706.9766 Q488.4063,1706.4766 487.7188,1705.4141 Q487.0313,1704.3359 487.0313,1703.0547 L487.0313,1701.8984 Q487.0313,1700.5703 487.6406,1699.4297 Q488.2656,1698.2734 489.3594,1697.6641 Q490.4531,1697.0391 491.6875,1697.0391 Q492.4219,1697.0391 493.0625,1697.2109 Q493.7188,1697.3672 494.2656,1697.7266 Z " fill="#000000"/><text fill="#000000" font-family="sans-serif" font-size="12" font-style="italic" lengthAdjust="spacing" textLength="85" x="519.5" y="1697.957">&#171;Value Object&#187;</text><text fill="#000000" font-family="sans-serif" font-size="14" lengthAdjust="spacing" textLength="113" x="505.5" y="1715.127">PaymentCurrency</text><line style="stroke:#181818;stroke-width:0.5;" x1="477.5" x2="620.5" y1="1723.2031" y2="1723.2031"/></g><!--class PaymentAmount--><g id="elem_PaymentAmount"><rect codeLine="102" fill="#F1F1F1" height="50.7031" id="PaymentAmount" rx="2.5" ry="2.5" style="stroke:#181818;stroke-width:0.5;" width="135" x="481.5" y="1594.5"/><ellipse cx="496.5" cy="1615.8516" fill="#ADD1B2" rx="11" ry="11" style="stroke:#181818;stroke-width:1.0;"/><path d="M499.2656,1611.7266 Q499.4219,1611.5078 499.6094,1611.3984 Q499.7969,1611.2891 500.0156,1611.2891 Q500.3906,1611.2891 500.625,1611.5547 Q500.8594,1611.8047 500.8594,1612.4141 L500.8594,1613.8672 Q500.8594,1614.4766 500.625,1614.7422 Q500.3906,1615.0078 500.0156,1615.0078 Q499.6719,1615.0078 499.4688,1614.8047 Q499.2656,1614.6172 499.1563,1614.1016 Q499.1094,1613.7422 498.9219,1613.5547 Q498.5938,1613.1797 497.9844,1612.9609 Q497.375,1612.7422 496.75,1612.7422 Q495.9844,1612.7422 495.3438,1613.0703 Q494.7188,1613.3984 494.2188,1614.1484 Q493.7344,1614.8984 493.7344,1615.9297 L493.7344,1617.0234 Q493.7344,1618.2578 494.625,1619.0859 Q495.5156,1619.8984 497.1094,1619.8984 Q498.0469,1619.8984 498.7031,1619.6484 Q499.0938,1619.4922 499.5156,1619.0547 Q499.7813,1618.7891 499.9219,1618.7109 Q500.0781,1618.6328 500.2813,1618.6328 Q500.6094,1618.6328 500.8594,1618.8984 Q501.125,1619.1484 501.125,1619.4922 Q501.125,1619.8359 500.7813,1620.2422 Q500.2813,1620.8203 499.4844,1621.1484 Q498.4063,1621.6016 497.1094,1621.6016 Q495.5938,1621.6016 494.3906,1620.9766 Q493.4063,1620.4766 492.7188,1619.4141 Q492.0313,1618.3359 492.0313,1617.0547 L492.0313,1615.8984 Q492.0313,1614.5703 492.6406,1613.4297 Q493.2656,1612.2734 494.3594,1611.6641 Q495.4531,1611.0391 496.6875,1611.0391 Q497.4219,1611.0391 498.0625,1611.2109 Q498.7188,1611.3672 499.2656,1611.7266 Z " fill="#000000"/><text fill="#000000" font-family="sans-serif" font-size="12" font-style="italic" lengthAdjust="spacing" textLength="85" x="519.5" y="1611.957">&#171;Value Object&#187;</text><text fill="#000000" font-family="sans-serif" font-size="14" lengthAdjust="spacing" textLength="103" x="510.5" y="1629.127">PaymentAmount</text><line style="stroke:#181818;stroke-width:0.5;" x1="482.5" x2="615.5" y1="1637.2031" y2="1637.2031"/></g><!--class LimitDate--><g id="elem_LimitDate"><rect codeLine="105" fill="#F1F1F1" height="50.7031" id="LimitDate" rx="2.5" ry="2.5" style="stroke:#181818;stroke-width:0.5;" width="113" x="492.5" y="1508.5"/><ellipse cx="507.5" cy="1529.8516" fill="#ADD1B2" rx="11" ry="11" style="stroke:#181818;stroke-width:1.0;"/><path d="M510.2656,1525.7266 Q510.4219,1525.5078 510.6094,1525.3984 Q510.7969,1525.2891 511.0156,1525.2891 Q511.3906,1525.2891 511.625,1525.5547 Q511.8594,1525.8047 511.8594,1526.4141 L511.8594,1527.8672 Q511.8594,1528.4766 511.625,1528.7422 Q511.3906,1529.0078 511.0156,1529.0078 Q510.6719,1529.0078 510.4688,1528.8047 Q510.2656,1528.6172 510.1563,1528.1016 Q510.1094,1527.7422 509.9219,1527.5547 Q509.5938,1527.1797 508.9844,1526.9609 Q508.375,1526.7422 507.75,1526.7422 Q506.9844,1526.7422 506.3438,1527.0703 Q505.7188,1527.3984 505.2188,1528.1484 Q504.7344,1528.8984 504.7344,1529.9297 L504.7344,1531.0234 Q504.7344,1532.2578 505.625,1533.0859 Q506.5156,1533.8984 508.1094,1533.8984 Q509.0469,1533.8984 509.7031,1533.6484 Q510.0938,1533.4922 510.5156,1533.0547 Q510.7813,1532.7891 510.9219,1532.7109 Q511.0781,1532.6328 511.2813,1532.6328 Q511.6094,1532.6328 511.8594,1532.8984 Q512.125,1533.1484 512.125,1533.4922 Q512.125,1533.8359 511.7813,1534.2422 Q511.2813,1534.8203 510.4844,1535.1484 Q509.4063,1535.6016 508.1094,1535.6016 Q506.5938,1535.6016 505.3906,1534.9766 Q504.4063,1534.4766 503.7188,1533.4141 Q503.0313,1532.3359 503.0313,1531.0547 L503.0313,1529.8984 Q503.0313,1528.5703 503.6406,1527.4297 Q504.2656,1526.2734 505.3594,1525.6641 Q506.4531,1525.0391 507.6875,1525.0391 Q508.4219,1525.0391 509.0625,1525.2109 Q509.7188,1525.3672 510.2656,1525.7266 Z " fill="#000000"/><text fill="#000000" font-family="sans-serif" font-size="12" font-style="italic" lengthAdjust="spacing" textLength="85" x="519.5" y="1525.957">&#171;Value Object&#187;</text><text fill="#000000" font-family="sans-serif" font-size="14" lengthAdjust="spacing" textLength="59" x="532.5" y="1543.127">LimitDate</text><line style="stroke:#181818;stroke-width:0.5;" x1="493.5" x2="604.5" y1="1551.2031" y2="1551.2031"/></g><!--class Client--><g id="elem_Client"><rect codeLine="117" fill="#F1F1F1" height="50.7031" id="Client" rx="2.5" ry="2.5" style="stroke:#181818;stroke-width:0.5;" width="101" x="23" y="206.5"/><ellipse cx="38" cy="227.8516" fill="#ADD1B2" rx="11" ry="11" style="stroke:#181818;stroke-width:1.0;"/><path d="M40.7656,223.7266 Q40.9219,223.5078 41.1094,223.3984 Q41.2969,223.2891 41.5156,223.2891 Q41.8906,223.2891 42.125,223.5547 Q42.3594,223.8047 42.3594,224.4141 L42.3594,225.8672 Q42.3594,226.4766 42.125,226.7422 Q41.8906,227.0078 41.5156,227.0078 Q41.1719,227.0078 40.9688,226.8047 Q40.7656,226.6172 40.6563,226.1016 Q40.6094,225.7422 40.4219,225.5547 Q40.0938,225.1797 39.4844,224.9609 Q38.875,224.7422 38.25,224.7422 Q37.4844,224.7422 36.8438,225.0703 Q36.2188,225.3984 35.7188,226.1484 Q35.2344,226.8984 35.2344,227.9297 L35.2344,229.0234 Q35.2344,230.2578 36.125,231.0859 Q37.0156,231.8984 38.6094,231.8984 Q39.5469,231.8984 40.2031,231.6484 Q40.5938,231.4922 41.0156,231.0547 Q41.2813,230.7891 41.4219,230.7109 Q41.5781,230.6328 41.7813,230.6328 Q42.1094,230.6328 42.3594,230.8984 Q42.625,231.1484 42.625,231.4922 Q42.625,231.8359 42.2813,232.2422 Q41.7813,232.8203 40.9844,233.1484 Q39.9063,233.6016 38.6094,233.6016 Q37.0938,233.6016 35.8906,232.9766 Q34.9063,232.4766 34.2188,231.4141 Q33.5313,230.3359 33.5313,229.0547 L33.5313,227.8984 Q33.5313,226.5703 34.1406,225.4297 Q34.7656,224.2734 35.8594,223.6641 Q36.9531,223.0391 38.1875,223.0391 Q38.9219,223.0391 39.5625,223.2109 Q40.2188,223.3672 40.7656,223.7266 Z " fill="#000000"/><text fill="#000000" font-family="sans-serif" font-size="12" font-style="italic" lengthAdjust="spacing" textLength="73" x="50" y="223.957">&#171;Entity Root&#187;</text><text fill="#000000" font-family="sans-serif" font-size="14" lengthAdjust="spacing" textLength="36" x="68.5" y="241.127">Client</text><line style="stroke:#181818;stroke-width:0.5;" x1="24" x2="123" y1="249.2031" y2="249.2031"/></g><!--class ClientName--><g id="elem_ClientName"><rect codeLine="120" fill="#F1F1F1" height="50.7031" id="ClientName" rx="2.5" ry="2.5" style="stroke:#181818;stroke-width:0.5;" width="113" x="239" y="215.5"/><ellipse cx="254" cy="236.8516" fill="#ADD1B2" rx="11" ry="11" style="stroke:#181818;stroke-width:1.0;"/><path d="M256.7656,232.7266 Q256.9219,232.5078 257.1094,232.3984 Q257.2969,232.2891 257.5156,232.2891 Q257.8906,232.2891 258.125,232.5547 Q258.3594,232.8047 258.3594,233.4141 L258.3594,234.8672 Q258.3594,235.4766 258.125,235.7422 Q257.8906,236.0078 257.5156,236.0078 Q257.1719,236.0078 256.9688,235.8047 Q256.7656,235.6172 256.6563,235.1016 Q256.6094,234.7422 256.4219,234.5547 Q256.0938,234.1797 255.4844,233.9609 Q254.875,233.7422 254.25,233.7422 Q253.4844,233.7422 252.8438,234.0703 Q252.2188,234.3984 251.7188,235.1484 Q251.2344,235.8984 251.2344,236.9297 L251.2344,238.0234 Q251.2344,239.2578 252.125,240.0859 Q253.0156,240.8984 254.6094,240.8984 Q255.5469,240.8984 256.2031,240.6484 Q256.5938,240.4922 257.0156,240.0547 Q257.2813,239.7891 257.4219,239.7109 Q257.5781,239.6328 257.7813,239.6328 Q258.1094,239.6328 258.3594,239.8984 Q258.625,240.1484 258.625,240.4922 Q258.625,240.8359 258.2813,241.2422 Q257.7813,241.8203 256.9844,242.1484 Q255.9063,242.6016 254.6094,242.6016 Q253.0938,242.6016 251.8906,241.9766 Q250.9063,241.4766 250.2188,240.4141 Q249.5313,239.3359 249.5313,238.0547 L249.5313,236.8984 Q249.5313,235.5703 250.1406,234.4297 Q250.7656,233.2734 251.8594,232.6641 Q252.9531,232.0391 254.1875,232.0391 Q254.9219,232.0391 255.5625,232.2109 Q256.2188,232.3672 256.7656,232.7266 Z " fill="#000000"/><text fill="#000000" font-family="sans-serif" font-size="12" font-style="italic" lengthAdjust="spacing" textLength="85" x="266" y="232.957">&#171;Value Object&#187;</text><text fill="#000000" font-family="sans-serif" font-size="14" lengthAdjust="spacing" textLength="72" x="272.5" y="250.127">ClientName</text><line style="stroke:#181818;stroke-width:0.5;" x1="240" x2="351" y1="258.2031" y2="258.2031"/></g><!--class ClientEmail--><g id="elem_ClientEmail"><rect codeLine="123" fill="#F1F1F1" height="50.7031" id="ClientEmail" rx="2.5" ry="2.5" style="stroke:#181818;stroke-width:0.5;" width="113" x="239" y="129.5"/><ellipse cx="254" cy="150.8516" fill="#ADD1B2" rx="11" ry="11" style="stroke:#181818;stroke-width:1.0;"/><path d="M256.7656,146.7266 Q256.9219,146.5078 257.1094,146.3984 Q257.2969,146.2891 257.5156,146.2891 Q257.8906,146.2891 258.125,146.5547 Q258.3594,146.8047 258.3594,147.4141 L258.3594,148.8672 Q258.3594,149.4766 258.125,149.7422 Q257.8906,150.0078 257.5156,150.0078 Q257.1719,150.0078 256.9688,149.8047 Q256.7656,149.6172 256.6563,149.1016 Q256.6094,148.7422 256.4219,148.5547 Q256.0938,148.1797 255.4844,147.9609 Q254.875,147.7422 254.25,147.7422 Q253.4844,147.7422 252.8438,148.0703 Q252.2188,148.3984 251.7188,149.1484 Q251.2344,149.8984 251.2344,150.9297 L251.2344,152.0234 Q251.2344,153.2578 252.125,154.0859 Q253.0156,154.8984 254.6094,154.8984 Q255.5469,154.8984 256.2031,154.6484 Q256.5938,154.4922 257.0156,154.0547 Q257.2813,153.7891 257.4219,153.7109 Q257.5781,153.6328 257.7813,153.6328 Q258.1094,153.6328 258.3594,153.8984 Q258.625,154.1484 258.625,154.4922 Q258.625,154.8359 258.2813,155.2422 Q257.7813,155.8203 256.9844,156.1484 Q255.9063,156.6016 254.6094,156.6016 Q253.0938,156.6016 251.8906,155.9766 Q250.9063,155.4766 250.2188,154.4141 Q249.5313,153.3359 249.5313,152.0547 L249.5313,150.8984 Q249.5313,149.5703 250.1406,148.4297 Q250.7656,147.2734 251.8594,146.6641 Q252.9531,146.0391 254.1875,146.0391 Q254.9219,146.0391 255.5625,146.2109 Q256.2188,146.3672 256.7656,146.7266 Z " fill="#000000"/><text fill="#000000" font-family="sans-serif" font-size="12" font-style="italic" lengthAdjust="spacing" textLength="85" x="266" y="146.957">&#171;Value Object&#187;</text><text fill="#000000" font-family="sans-serif" font-size="14" lengthAdjust="spacing" textLength="70" x="273.5" y="164.127">ClientEmail</text><line style="stroke:#181818;stroke-width:0.5;" x1="240" x2="351" y1="172.2031" y2="172.2031"/></g><!--class VATNumber--><g id="elem_VATNumber"><rect codeLine="126" fill="#F1F1F1" height="50.7031" id="VATNumber" rx="2.5" ry="2.5" style="stroke:#181818;stroke-width:0.5;" width="113" x="239" y="43.5"/><ellipse cx="254" cy="64.8516" fill="#ADD1B2" rx="11" ry="11" style="stroke:#181818;stroke-width:1.0;"/><path d="M256.7656,60.7266 Q256.9219,60.5078 257.1094,60.3984 Q257.2969,60.2891 257.5156,60.2891 Q257.8906,60.2891 258.125,60.5547 Q258.3594,60.8047 258.3594,61.4141 L258.3594,62.8672 Q258.3594,63.4766 258.125,63.7422 Q257.8906,64.0078 257.5156,64.0078 Q257.1719,64.0078 256.9688,63.8047 Q256.7656,63.6172 256.6563,63.1016 Q256.6094,62.7422 256.4219,62.5547 Q256.0938,62.1797 255.4844,61.9609 Q254.875,61.7422 254.25,61.7422 Q253.4844,61.7422 252.8438,62.0703 Q252.2188,62.3984 251.7188,63.1484 Q251.2344,63.8984 251.2344,64.9297 L251.2344,66.0234 Q251.2344,67.2578 252.125,68.0859 Q253.0156,68.8984 254.6094,68.8984 Q255.5469,68.8984 256.2031,68.6484 Q256.5938,68.4922 257.0156,68.0547 Q257.2813,67.7891 257.4219,67.7109 Q257.5781,67.6328 257.7813,67.6328 Q258.1094,67.6328 258.3594,67.8984 Q258.625,68.1484 258.625,68.4922 Q258.625,68.8359 258.2813,69.2422 Q257.7813,69.8203 256.9844,70.1484 Q255.9063,70.6016 254.6094,70.6016 Q253.0938,70.6016 251.8906,69.9766 Q250.9063,69.4766 250.2188,68.4141 Q249.5313,67.3359 249.5313,66.0547 L249.5313,64.8984 Q249.5313,63.5703 250.1406,62.4297 Q250.7656,61.2734 251.8594,60.6641 Q252.9531,60.0391 254.1875,60.0391 Q254.9219,60.0391 255.5625,60.2109 Q256.2188,60.3672 256.7656,60.7266 Z " fill="#000000"/><text fill="#000000" font-family="sans-serif" font-size="12" font-style="italic" lengthAdjust="spacing" textLength="85" x="266" y="60.957">&#171;Value Object&#187;</text><text fill="#000000" font-family="sans-serif" font-size="14" lengthAdjust="spacing" textLength="76" x="270.5" y="78.127">VATNumber</text><line style="stroke:#181818;stroke-width:0.5;" x1="240" x2="351" y1="86.2031" y2="86.2031"/></g><!--class Amount--><g id="elem_Amount"><rect fill="#F1F1F1" height="40" id="Amount" rx="2.5" ry="2.5" style="stroke:#181818;stroke-width:0.5;" width="80" x="805" y="944"/><ellipse cx="820" cy="960" fill="#ADD1B2" rx="11" ry="11" style="stroke:#181818;stroke-width:1.0;"/><path d="M822.7656,955.875 Q822.9219,955.6563 823.1094,955.5469 Q823.2969,955.4375 823.5156,955.4375 Q823.8906,955.4375 824.125,955.7031 Q824.3594,955.9531 824.3594,956.5625 L824.3594,958.0156 Q824.3594,958.625 824.125,958.8906 Q823.8906,959.1563 823.5156,959.1563 Q823.1719,959.1563 822.9688,958.9531 Q822.7656,958.7656 822.6563,958.25 Q822.6094,957.8906 822.4219,957.7031 Q822.0938,957.3281 821.4844,957.1094 Q820.875,956.8906 820.25,956.8906 Q819.4844,956.8906 818.8438,957.2188 Q818.2188,957.5469 817.7188,958.2969 Q817.2344,959.0469 817.2344,960.0781 L817.2344,961.1719 Q817.2344,962.4063 818.125,963.2344 Q819.0156,964.0469 820.6094,964.0469 Q821.5469,964.0469 822.2031,963.7969 Q822.5938,963.6406 823.0156,963.2031 Q823.2813,962.9375 823.4219,962.8594 Q823.5781,962.7813 823.7813,962.7813 Q824.1094,962.7813 824.3594,963.0469 Q824.625,963.2969 824.625,963.6406 Q824.625,963.9844 824.2813,964.3906 Q823.7813,964.9688 822.9844,965.2969 Q821.9063,965.75 820.6094,965.75 Q819.0938,965.75 817.8906,965.125 Q816.9063,964.625 816.2188,963.5625 Q815.5313,962.4844 815.5313,961.2031 L815.5313,960.0469 Q815.5313,958.7188 816.1406,957.5781 Q816.7656,956.4219 817.8594,955.8125 Q818.9531,955.1875 820.1875,955.1875 Q820.9219,955.1875 821.5625,955.3594 Q822.2188,955.5156 822.7656,955.875 Z " fill="#000000"/><text fill="#000000" font-family="sans-serif" font-size="14" lengthAdjust="spacing" textLength="48" x="834" y="965.7285">Amount</text><line style="stroke:#181818;stroke-width:0.5;" x1="806" x2="884" y1="976" y2="976"/></g><!--link BankAccount to BankCommission--><g id="link_BankAccount_BankCommission"><path codeLine="47" d="M303.07,680.51 C313.57,715.4 337.85,776.67 384,803 C412.2,819.09 441.8567,820.7975 472.6767,816.9275 " fill="none" id="BankAccount-to-BankCommission" style="stroke:#181818;stroke-width:1.0;"/><polygon fill="#181818" points="478.63,816.18,469.2018,813.3325,473.669,816.8029,470.1985,821.2701,478.63,816.18" style="stroke:#181818;stroke-width:1.0;"/><text fill="#000000" font-family="sans-serif" font-size="13" lengthAdjust="spacing" textLength="21" x="401.5" y="799.4951">has</text><text fill="#000000" font-family="sans-serif" font-size="13" lengthAdjust="spacing" textLength="7" x="305.6299" y="701.8293">1</text><text fill="#000000" font-family="sans-serif" font-size="13" lengthAdjust="spacing" textLength="7" x="464.0122" y="832.3052">1</text></g><!--link BankAccount to BankCommission--><g id="link_BankAccount_BankCommission"><path codeLine="49" d="M332.51,680.64 C348.08,691.37 366.67,703.71 384,714 C420.13,735.44 456.8455,754.5326 489.3455,770.6626 " fill="none" id="BankAccount-to-BankCommission-1" style="stroke:#181818;stroke-width:1.0;"/><polygon fill="#181818" points="494.72,773.33,488.4365,765.7459,490.2413,771.1072,484.88,772.9119,494.72,773.33" style="stroke:#181818;stroke-width:1.0;"/><text fill="#000000" font-family="sans-serif" font-size="13" lengthAdjust="spacing" textLength="21" x="401.5" y="710.4951">has</text><text fill="#000000" font-family="sans-serif" font-size="13" lengthAdjust="spacing" textLength="7" x="332.8403" y="701.5648">1</text><text fill="#000000" font-family="sans-serif" font-size="13" lengthAdjust="spacing" textLength="7" x="473.6361" y="762.6971">1</text></g><!--link BankAccount to BankInstitution--><g id="link_BankAccount_BankInstitution"><path codeLine="48" d="M301.06,680.71 C309.71,721.65 332.46,801.36 384,844 C412.72,867.76 447.3592,877.2634 480.9692,881.5934 " fill="none" id="BankAccount-to-BankInstitution" style="stroke:#181818;stroke-width:1.0;"/><polygon fill="#181818" points="486.92,882.36,478.5049,877.2428,481.961,881.7211,477.4827,885.1772,486.92,882.36" style="stroke:#181818;stroke-width:1.0;"/><text fill="#000000" font-family="sans-serif" font-size="13" lengthAdjust="spacing" textLength="54" x="385" y="840.4951">related to</text><text fill="#000000" font-family="sans-serif" font-size="13" lengthAdjust="spacing" textLength="7" x="294.5106" y="701.6501">1</text><text fill="#000000" font-family="sans-serif" font-size="13" lengthAdjust="spacing" textLength="7" x="471.9274" y="896.5479">1</text></g><!--link BankAccount to AccountNumber--><g id="link_BankAccount_AccountNumber"><path codeLine="50" d="M353.26,668.09 C391.65,676.94 436.6235,687.3114 476.7235,696.5614 " fill="none" id="BankAccount-to-AccountNumber" style="stroke:#181818;stroke-width:1.0;"/><polygon fill="#181818" points="482.57,697.91,474.6994,691.9894,477.6979,696.7861,472.9012,699.7847,482.57,697.91" style="stroke:#181818;stroke-width:1.0;"/><text fill="#000000" font-family="sans-serif" font-size="13" lengthAdjust="spacing" textLength="21" x="401.5" y="672.4951">has</text><text fill="#000000" font-family="sans-serif" font-size="13" lengthAdjust="spacing" textLength="7" x="361.1089" y="684.3288">1</text><text fill="#000000" font-family="sans-serif" font-size="13" lengthAdjust="spacing" textLength="7" x="467.9214" y="710.6651">1</text></g><!--link BankAccount to Balance--><g id="link_BankAccount_Balance"><path codeLine="51" d="M353.26,648.68 C394.83,644.05 445.0268,638.4637 486.3568,633.8637 " fill="none" id="BankAccount-to-Balance" style="stroke:#181818;stroke-width:1.0;"/><polygon fill="#181818" points="492.32,633.2,482.9328,630.2201,487.3507,633.7531,483.8177,638.171,492.32,633.2" style="stroke:#181818;stroke-width:1.0;"/><text fill="#000000" font-family="sans-serif" font-size="13" lengthAdjust="spacing" textLength="21" x="401.5" y="636.4951">has</text><text fill="#000000" font-family="sans-serif" font-size="13" lengthAdjust="spacing" textLength="7" x="361.1089" y="662.4319">1</text><text fill="#000000" font-family="sans-serif" font-size="13" lengthAdjust="spacing" textLength="7" x="477.6094" y="648.556">1</text></g><!--link BankAccount to Currency--><g id="link_BankAccount_Currency"><path codeLine="52" d="M350.57,629.47 C361.61,624.31 373.17,618.95 384,614 C420,597.55 455.1622,581.8856 486.9722,567.8256 " fill="none" id="BankAccount-to-Currency" style="stroke:#181818;stroke-width:1.0;"/><polygon fill="#181818" points="492.46,565.4,482.6112,565.3799,487.8868,567.4214,485.8453,572.697,492.46,565.4" style="stroke:#181818;stroke-width:1.0;"/><text fill="#000000" font-family="sans-serif" font-size="13" lengthAdjust="spacing" textLength="21" x="401.5" y="586.4951">has</text><text fill="#000000" font-family="sans-serif" font-size="13" lengthAdjust="spacing" textLength="7" x="356.7848" y="618.4561">1</text><text fill="#000000" font-family="sans-serif" font-size="13" lengthAdjust="spacing" textLength="7" x="477.3921" y="583.2924">1</text></g><!--link BankAccount to IBAN--><g id="link_BankAccount_IBAN"><path codeLine="53" d="M307.11,629.5 C321.67,596.09 349.96,536.53 384,492 C415.41,450.91 426.62,442.34 468.5,412 C477.01,405.83 481.302,402.9119 490.692,397.5819 " fill="none" id="BankAccount-to-IBAN" style="stroke:#181818;stroke-width:1.0;"/><polygon fill="#181818" points="495.91,394.62,486.1084,395.5841,491.5617,397.0882,490.0576,402.5414,495.91,394.62" style="stroke:#181818;stroke-width:1.0;"/><text fill="#000000" font-family="sans-serif" font-size="13" lengthAdjust="spacing" textLength="21" x="401.5" y="430.4951">has</text><text fill="#000000" font-family="sans-serif" font-size="13" lengthAdjust="spacing" textLength="7" x="302.1882" y="618.4938">1</text><text fill="#000000" font-family="sans-serif" font-size="13" lengthAdjust="spacing" textLength="7" x="477.2383" y="415.1161">1</text></g><!--link BankAccount to Description--><g id="link_BankAccount_Description"><path codeLine="54" d="M319.35,629.34 C336.5,610.57 360.89,584.85 384,564 C419.38,532.08 428.63,524.09 468.5,498 C477.69,491.99 482.5535,488.9611 492.3935,483.5011 " fill="none" id="BankAccount-to-Description" style="stroke:#181818;stroke-width:1.0;"/><polygon fill="#181818" points="497.64,480.59,487.8296,481.4591,493.268,483.016,491.7111,488.4543,497.64,480.59" style="stroke:#181818;stroke-width:1.0;"/><text fill="#000000" font-family="sans-serif" font-size="13" lengthAdjust="spacing" textLength="21" x="401.5" y="514.4951">has</text><text fill="#000000" font-family="sans-serif" font-size="13" lengthAdjust="spacing" textLength="7" x="317.3103" y="618.7095">1</text><text fill="#000000" font-family="sans-serif" font-size="13" lengthAdjust="spacing" textLength="7" x="478.6394" y="501.5039">1</text></g><!--link BankInstitution to InstitutionName--><g id="link_BankInstitution_InstitutionName"><path codeLine="56" d="M611.27,884.58 C660.92,884.25 724.6101,883.8107 774.7801,883.4707 " fill="none" id="BankInstitution-to-InstitutionName" style="stroke:#181818;stroke-width:1.0;"/><polygon fill="#181818" points="780.78,883.43,771.7531,879.4911,775.7801,883.4639,771.8073,887.4909,780.78,883.43" style="stroke:#181818;stroke-width:1.0;"/><text fill="#000000" font-family="sans-serif" font-size="13" lengthAdjust="spacing" textLength="21" x="682.5" y="880.4951">has</text><text fill="#000000" font-family="sans-serif" font-size="13" lengthAdjust="spacing" textLength="7" x="618.8747" y="898.989">1</text><text fill="#000000" font-family="sans-serif" font-size="13" lengthAdjust="spacing" textLength="7" x="765.9499" y="897.9373">1</text></g><!--link BankInstitution to Country--><g id="link_BankInstitution_Country"><path codeLine="57" d="M611.27,866.66 C663.44,851.04 732.0019,830.5203 782.5219,815.4003 " fill="none" id="BankInstitution-to-Country" style="stroke:#181818;stroke-width:1.0;"/><polygon fill="#181818" points="788.27,813.68,778.501,812.4284,783.4799,815.1136,780.7948,820.0925,788.27,813.68" style="stroke:#181818;stroke-width:1.0;"/><text fill="#000000" font-family="sans-serif" font-size="13" lengthAdjust="spacing" textLength="64" x="661" y="830.4951">operates in</text><text fill="#000000" font-family="sans-serif" font-size="13" lengthAdjust="spacing" textLength="7" x="618.8747" y="878.997">1</text><text fill="#000000" font-family="sans-serif" font-size="13" lengthAdjust="spacing" textLength="7" x="773.553" y="830.3788">1</text></g><!--link BankCommission to Value--><g id="link_BankCommission_Value"><path codeLine="59" d="M619.3,778.26 C670.91,762.81 734.7023,743.7214 782.6823,729.3514 " fill="none" id="BankCommission-to-Value" style="stroke:#181818;stroke-width:1.0;"/><polygon fill="#181818" points="788.43,727.63,778.6607,726.3803,783.6402,729.0645,780.956,734.044,788.43,727.63" style="stroke:#181818;stroke-width:1.0;"/><text fill="#000000" font-family="sans-serif" font-size="13" lengthAdjust="spacing" textLength="21" x="682.5" y="744.4951">has</text><text fill="#000000" font-family="sans-serif" font-size="13" lengthAdjust="spacing" textLength="7" x="626.9106" y="790.4747">1</text><text fill="#000000" font-family="sans-serif" font-size="13" lengthAdjust="spacing" textLength="7" x="773.3581" y="744.4783">1</text></g><!--link BankCommission to Name--><g id="link_BankCommission_Name"><path codeLine="60" d="M619.02,780.42 C631.43,774.37 643.19,766.42 652,756 C662.02,744.14 650.67,734.41 660,722 C689.42,682.87 712.66,690.76 756,668 C766.99,662.23 773.4865,658.8991 784.8465,653.3091 " fill="none" id="BankCommission-to-Name" style="stroke:#181818;stroke-width:1.0;"/><polygon fill="#181818" points="790.23,650.66,780.3887,651.0446,785.7437,652.8676,783.9208,658.2227,790.23,650.66" style="stroke:#181818;stroke-width:1.0;"/><text fill="#000000" font-family="sans-serif" font-size="13" lengthAdjust="spacing" textLength="21" x="682.5" y="677.4951">has</text><text fill="#000000" font-family="sans-serif" font-size="13" lengthAdjust="spacing" textLength="7" x="627.0613" y="775.0434">1</text><text fill="#000000" font-family="sans-serif" font-size="13" lengthAdjust="spacing" textLength="7" x="773.579" y="669.7838">1</text></g><!--link BankAccount to Transaction--><g id="link_BankAccount_Transaction"><path codeLine="84" d="M304.27,680.71 C318.18,725.64 349.14,821 384,898 C431.12,1002.1 497.8656,1113.8699 528.9456,1164.3799 " fill="none" id="BankAccount-to-Transaction" style="stroke:#181818;stroke-width:1.0;"/><polygon fill="#181818" points="532.09,1169.49,530.7802,1159.7286,529.4697,1165.2316,523.9667,1163.9211,532.09,1169.49" style="stroke:#181818;stroke-width:1.0;"/><text fill="#000000" font-family="sans-serif" font-size="13" lengthAdjust="spacing" textLength="21" x="401.5" y="894.4951">has</text><text fill="#000000" font-family="sans-serif" font-size="13" lengthAdjust="spacing" textLength="7" x="306.9541" y="701.6501">1</text><text fill="#000000" font-family="sans-serif" font-size="13" lengthAdjust="spacing" textLength="20" x="505.1943" y="1158.4813">0..*</text></g><!--link Transaction to Amount--><g id="link_Transaction_Amount"><path codeLine="85" d="M573.79,1169.32 C595.35,1146.62 628.49,1113.15 660,1087 C700.04,1053.77 712.71,1048.86 756,1020 C774.23,1007.85 789.8125,997.8666 806.5225,987.3466 " fill="none" id="Transaction-to-Amount" style="stroke:#181818;stroke-width:1.0;"/><polygon fill="#181818" points="811.6,984.15,801.8526,985.5599,807.3687,986.8139,806.1148,992.33,811.6,984.15" style="stroke:#181818;stroke-width:1.0;"/><text fill="#000000" font-family="sans-serif" font-size="13" lengthAdjust="spacing" textLength="21" x="682.5" y="1036.4951">has</text><text fill="#000000" font-family="sans-serif" font-size="13" lengthAdjust="spacing" textLength="7" x="571.9794" y="1158.6846">1</text><text fill="#000000" font-family="sans-serif" font-size="13" lengthAdjust="spacing" textLength="7" x="794.2219" y="1005.6117">1</text></g><!--link Transaction to Date--><g id="link_Transaction_Date"><path codeLine="86" d="M590.69,1220.6 C611.78,1235.79 636.33,1256.79 652,1281 C659.03,1291.87 651.98,1298.84 660,1309 C690.34,1347.42 712.66,1340.24 756,1363 C766.99,1368.77 773.4865,1372.1009 784.8465,1377.6909 " fill="none" id="Transaction-to-Date" style="stroke:#181818;stroke-width:1.0;"/><polygon fill="#181818" points="790.23,1380.34,783.9208,1372.7773,785.7437,1378.1324,780.3887,1379.9554,790.23,1380.34" style="stroke:#181818;stroke-width:1.0;"/><text fill="#000000" font-family="sans-serif" font-size="13" lengthAdjust="spacing" textLength="21" x="682.5" y="1305.4951">has</text><text fill="#000000" font-family="sans-serif" font-size="13" lengthAdjust="spacing" textLength="7" x="592.0441" y="1241.516">1</text><text fill="#000000" font-family="sans-serif" font-size="13" lengthAdjust="spacing" textLength="7" x="773.579" y="1372.3139">1</text></g><!--link Transaction to TransactionDescription--><g id="link_Transaction_TransactionDescription"><path codeLine="87" d="M591.11,1220.55 C611.4,1232.53 636.5,1246.46 660,1257 C691.58,1271.16 721.672,1282.2005 753.232,1292.6105 " fill="none" id="Transaction-to-TransactionDescription" style="stroke:#181818;stroke-width:1.0;"/><polygon fill="#181818" points="758.93,1294.49,751.6359,1287.8721,754.1816,1292.9238,749.13,1295.4695,758.93,1294.49" style="stroke:#181818;stroke-width:1.0;"/><text fill="#000000" font-family="sans-serif" font-size="13" lengthAdjust="spacing" textLength="21" x="682.5" y="1253.4951">has</text><text fill="#000000" font-family="sans-serif" font-size="13" lengthAdjust="spacing" textLength="7" x="601.6573" y="1241.8785">1</text><text fill="#000000" font-family="sans-serif" font-size="13" lengthAdjust="spacing" textLength="7" x="741.0137" y="1287.9406">1</text></g><!--link Transaction to TransactionCurrency--><g id="link_Transaction_TransactionCurrency"><path codeLine="88" d="M602.73,1210.58 C620.75,1215.33 641.11,1220.06 660,1223 C693.2,1228.17 724.1264,1230.6728 756.1264,1232.1528 " fill="none" id="Transaction-to-TransactionCurrency" style="stroke:#181818;stroke-width:1.0;"/><polygon fill="#181818" points="762.12,1232.43,753.3144,1228.0185,757.1253,1232.199,752.9448,1236.0099,762.12,1232.43" style="stroke:#181818;stroke-width:1.0;"/><text fill="#000000" font-family="sans-serif" font-size="13" lengthAdjust="spacing" textLength="21" x="682.5" y="1219.4951">has</text><text fill="#000000" font-family="sans-serif" font-size="13" lengthAdjust="spacing" textLength="7" x="610.4203" y="1227.2872">1</text><text fill="#000000" font-family="sans-serif" font-size="13" lengthAdjust="spacing" textLength="7" x="747.4268" y="1246.5267">1</text></g><!--link Transaction to TransactionBalance--><g id="link_Transaction_TransactionBalance"><path codeLine="89" d="M602.56,1186.6 C647.98,1179.34 708.3352,1169.6867 759.9652,1161.4367 " fill="none" id="Transaction-to-TransactionBalance" style="stroke:#181818;stroke-width:1.0;"/><polygon fill="#181818" points="765.89,1160.49,756.3716,1157.9602,760.9526,1161.2789,757.6339,1165.86,765.89,1160.49" style="stroke:#181818;stroke-width:1.0;"/><text fill="#000000" font-family="sans-serif" font-size="13" lengthAdjust="spacing" textLength="21" x="682.5" y="1164.4951">has</text><text fill="#000000" font-family="sans-serif" font-size="13" lengthAdjust="spacing" textLength="7" x="610.5841" y="1200.0845">1</text><text fill="#000000" font-family="sans-serif" font-size="13" lengthAdjust="spacing" textLength="7" x="751.0162" y="1175.969">1</text></g><!--link Transaction to Type--><g id="link_Transaction_Type"><path codeLine="90" d="M602.12,1169.38 C620.36,1160.55 641.02,1150.7 660,1142 C702.75,1122.42 746.0624,1103.5971 782.6724,1087.9571 " fill="none" id="Transaction-to-Type" style="stroke:#181818;stroke-width:1.0;"/><polygon fill="#181818" points="788.19,1085.6,778.3422,1085.4573,783.592,1087.5643,781.485,1092.8141,788.19,1085.6" style="stroke:#181818;stroke-width:1.0;"/><text fill="#000000" font-family="sans-serif" font-size="13" lengthAdjust="spacing" textLength="21" x="682.5" y="1109.4951">has</text><text fill="#000000" font-family="sans-serif" font-size="13" lengthAdjust="spacing" textLength="7" x="610.4361" y="1180.3348">1</text><text fill="#000000" font-family="sans-serif" font-size="13" lengthAdjust="spacing" textLength="7" x="773.4628" y="1103.1854">1</text></g><!--link Payment to PaymentDescription--><g id="link_Payment_PaymentDescription"><path codeLine="110" d="M313.88,1602.61 C330.41,1625.99 356.74,1660.78 384,1687 C417.57,1719.29 429.14,1724.08 468.5,1749 C477.91,1754.96 482.9652,1758.024 492.9452,1763.524 " fill="none" id="Payment-to-PaymentDescription" style="stroke:#181818;stroke-width:1.0;"/><polygon fill="#181818" points="498.2,1766.42,492.2484,1758.5728,493.821,1764.0067,488.3871,1765.5793,498.2,1766.42" style="stroke:#181818;stroke-width:1.0;"/><text fill="#000000" font-family="sans-serif" font-size="13" lengthAdjust="spacing" textLength="21" x="401.5" y="1683.4951">has</text><text fill="#000000" font-family="sans-serif" font-size="13" lengthAdjust="spacing" textLength="7" x="310.135" y="1623.5282">1</text><text fill="#000000" font-family="sans-serif" font-size="13" lengthAdjust="spacing" textLength="7" x="477.9644" y="1755.809">1</text></g><!--link Payment to PaymentCurrency--><g id="link_Payment_PaymentCurrency"><path codeLine="111" d="M331.3,1602.69 C346.97,1613.67 365.98,1626.19 384,1636 C414.59,1652.65 444.4097,1665.9255 474.4497,1678.1055 " fill="none" id="Payment-to-PaymentCurrency" style="stroke:#181818;stroke-width:1.0;"/><polygon fill="#181818" points="480.01,1680.36,473.1725,1673.2714,475.3764,1678.4813,470.1665,1680.6852,480.01,1680.36" style="stroke:#181818;stroke-width:1.0;"/><text fill="#000000" font-family="sans-serif" font-size="13" lengthAdjust="spacing" textLength="21" x="401.5" y="1632.4951">has</text><text fill="#000000" font-family="sans-serif" font-size="13" lengthAdjust="spacing" textLength="7" x="331.3656" y="1623.6257">1</text><text fill="#000000" font-family="sans-serif" font-size="13" lengthAdjust="spacing" textLength="7" x="461.4569" y="1672.5454">1</text></g><!--link Payment to PaymentAmount--><g id="link_Payment_PaymentAmount"><path codeLine="112" d="M346.12,1592.75 C358.4,1596.21 371.6,1599.57 384,1602 C415.76,1608.23 445.4659,1611.9133 475.4059,1614.7033 " fill="none" id="Payment-to-PaymentAmount" style="stroke:#181818;stroke-width:1.0;"/><polygon fill="#181818" points="481.38,1615.26,472.79,1610.4422,476.4016,1614.7961,472.0477,1618.4077,481.38,1615.26" style="stroke:#181818;stroke-width:1.0;"/><text fill="#000000" font-family="sans-serif" font-size="13" lengthAdjust="spacing" textLength="21" x="401.5" y="1598.4951">has</text><text fill="#000000" font-family="sans-serif" font-size="13" lengthAdjust="spacing" textLength="7" x="354.0689" y="1609.781">1</text><text fill="#000000" font-family="sans-serif" font-size="13" lengthAdjust="spacing" textLength="7" x="466.6013" y="1629.1471">1</text></g><!--link Payment to LimitDate--><g id="link_Payment_LimitDate"><path codeLine="113" d="M346.19,1568.5 C388.28,1561.31 442.6557,1552.0105 486.3757,1544.5405 " fill="none" id="Payment-to-LimitDate" style="stroke:#181818;stroke-width:1.0;"/><polygon fill="#181818" points="492.29,1543.53,482.7449,1541.1029,487.3614,1544.3721,484.0922,1548.9886,492.29,1543.53" style="stroke:#181818;stroke-width:1.0;"/><text fill="#000000" font-family="sans-serif" font-size="13" lengthAdjust="spacing" textLength="21" x="401.5" y="1548.4951">has</text><text fill="#000000" font-family="sans-serif" font-size="13" lengthAdjust="spacing" textLength="7" x="354.1492" y="1581.9693">1</text><text fill="#000000" font-family="sans-serif" font-size="13" lengthAdjust="spacing" textLength="7" x="477.5756" y="1559.3127">1</text></g><!--link Payment to Transaction--><g id="link_Payment_Transaction"><path codeLine="114" d="M309.01,1551.28 C335.23,1498.43 399.28,1374.7 468.5,1281 C484.45,1259.41 500.8708,1241.4859 517.1208,1225.0559 " fill="none" id="Payment-to-Transaction" style="stroke:#181818;stroke-width:1.0;"/><polygon fill="#181818" points="521.34,1220.79,512.1672,1224.3761,517.824,1224.345,517.8552,1230.0017,521.34,1220.79" style="stroke:#181818;stroke-width:1.0;"/><text fill="#000000" font-family="sans-serif" font-size="13" lengthAdjust="spacing" textLength="53" x="385.5" y="1323.4951">becomes</text><text fill="#000000" font-family="sans-serif" font-size="13" lengthAdjust="spacing" textLength="7" x="304.4499" y="1540.6349">1</text><text fill="#000000" font-family="sans-serif" font-size="13" lengthAdjust="spacing" textLength="7" x="507.5238" y="1241.7476">1</text></g><!--link Client to ClientName--><g id="link_Client_ClientName"><path codeLine="131" d="M124.15,234.03 C158.24,235.43 197.535,237.0355 232.845,238.4755 " fill="none" id="Client-to-ClientName" style="stroke:#181818;stroke-width:1.0;"/><polygon fill="#181818" points="238.84,238.72,230.0105,234.3566,233.8442,238.5163,229.6845,242.3499,238.84,238.72" style="stroke:#181818;stroke-width:1.0;"/><text fill="#000000" font-family="sans-serif" font-size="13" lengthAdjust="spacing" textLength="21" x="169.5" y="232.4951">has</text><text fill="#000000" font-family="sans-serif" font-size="13" lengthAdjust="spacing" textLength="7" x="132.1033" y="249.0459">1</text><text fill="#000000" font-family="sans-serif" font-size="13" lengthAdjust="spacing" textLength="7" x="224.132" y="252.9895">1</text></g><!--link Client to ClientEmail--><g id="link_Client_ClientEmail"><path codeLine="132" d="M124.15,214.62 C158.24,202.69 197.8669,188.8223 233.1769,176.4623 " fill="none" id="Client-to-ClientEmail" style="stroke:#181818;stroke-width:1.0;"/><polygon fill="#181818" points="238.84,174.48,229.0238,173.6781,234.1208,176.1319,231.6669,181.2289,238.84,174.48" style="stroke:#181818;stroke-width:1.0;"/><text fill="#000000" font-family="sans-serif" font-size="13" lengthAdjust="spacing" textLength="21" x="169.5" y="183.4951">has</text><text fill="#000000" font-family="sans-serif" font-size="13" lengthAdjust="spacing" textLength="7" x="132.1033" y="226.785">1</text><text fill="#000000" font-family="sans-serif" font-size="13" lengthAdjust="spacing" textLength="7" x="224.132" y="191.5375">1</text></g><!--link Client to VATNumber--><g id="link_Client_VATNumber"><path codeLine="133" d="M100.19,206.47 C127.06,180.63 171.2,140.52 214,112 C223.1,105.94 227.8847,102.9152 237.7047,97.5052 " fill="none" id="Client-to-VATNumber" style="stroke:#181818;stroke-width:1.0;"/><polygon fill="#181818" points="242.96,94.61,233.147,95.4493,238.5806,97.0227,237.0072,102.4563,242.96,94.61" style="stroke:#181818;stroke-width:1.0;"/><text fill="#000000" font-family="sans-serif" font-size="13" lengthAdjust="spacing" textLength="21" x="169.5" y="114.4951">has</text><text fill="#000000" font-family="sans-serif" font-size="13" lengthAdjust="spacing" textLength="7" x="99.1324" y="195.4561">1</text><text fill="#000000" font-family="sans-serif" font-size="13" lengthAdjust="spacing" textLength="7" x="223.7013" y="115.5282">1</text></g><!--link Client to BankAccount--><g id="link_Client_BankAccount"><path codeLine="134" d="M87.77,257.51 C126.97,332.89 239.2212,548.717 278.4512,624.137 " fill="none" id="Client-to-BankAccount" style="stroke:#181818;stroke-width:1.0;"/><polygon fill="#181818" points="281.22,629.46,280.6155,619.6297,278.9127,625.0242,273.5182,623.3214,281.22,629.46" style="stroke:#181818;stroke-width:1.0;"/><text fill="#000000" font-family="sans-serif" font-size="13" lengthAdjust="spacing" textLength="21" x="169.5" y="390.4951">has</text><text fill="#000000" font-family="sans-serif" font-size="13" lengthAdjust="spacing" textLength="7" x="83.2606" y="278.8293">1</text><text fill="#000000" font-family="sans-serif" font-size="13" lengthAdjust="spacing" textLength="5" x="271.9201" y="618.4436">*</text></g><!--link Client to Payment--><g id="link_Client_Payment"><path codeLine="135" d="M78.7,257.67 C106.4,427 261.6416,1376.0987 289.3316,1545.4187 " fill="none" id="Client-to-Payment" style="stroke:#181818;stroke-width:1.0;"/><polygon fill="#181818" points="290.3,1551.34,292.795,1541.8124,289.493,1546.4055,284.8999,1543.1036,290.3,1551.34" style="stroke:#181818;stroke-width:1.0;"/><text fill="#000000" font-family="sans-serif" font-size="13" lengthAdjust="spacing" textLength="50" x="155" y="741.4951">performs</text><text fill="#000000" font-family="sans-serif" font-size="13" lengthAdjust="spacing" textLength="7" x="72.0719" y="278.6014">1</text><text fill="#000000" font-family="sans-serif" font-size="13" lengthAdjust="spacing" textLength="20" x="266.595" y="1540.7095">0..*</text></g><!--SRC=[hPR1QkCm48RlUeeXnq9BUmqbu7XxA2pPPHjwLnIrKMD9Hf8FRkcxhsofZfJQYWmr8GRxcz5e_fcH3snFWLDpa7kDAlfYm4XGxFLWOCyK9OP9WVIHYHehpA6iiDQ5COhj6aCVYHHFx9t2RO3Kc1pnAtqoRKMXyu2GVmHhB8u58R8HHiC70dkHpc7u0kxl7uHXfeL_KfhLodEVw0n_5DfIJHVVO39Dbv9pflLb-1bN3RMCk__PlTaDZ9CRpFD0lx5DmtTKPLciSOK5oVDUDafHGTeiE4XQTlXb5xpAy_-BQg9OxKN9Y6TTRAP106Hf51R7ucu1rzUh_XxhkeG3raassFpI5cQ53TtRQlyH_v76bqBfnKr3NwgcgIvzQI8Gn87el7SYVt5vd5nF6VZQM8AigRBvrC24Mo9ekD2WL_haTu8wBJwCZgt2GkD-7CMZ8tYHCpeAplsKoQXckwCiC8XXRWS4fhCwER2RCossRPq0FyVhwFRcvceHhkYq2JCVzKAVuJJJfJPDZESqsoPke0o3g2qdUPk-iyByYrjEpyyp_p2d83qwjswysQoQyJP5VWVyPfoPT1jq_zsO_jfocAxlUtF9Ix2nRWamhB8nR0Xz6eagUaU9v3GGjgpODrtTinnP7Pb_oFRu0yUiokAVY-t5xmdxy_568ti8p2Lc4kc3cMI60CQ9gqNuJJVEkB7YXLc2FK5UfE9M0Nlz1m00]--></g></svg>