<?xml version="1.0" encoding="us-ascii" standalone="no"?><svg xmlns="http://www.w3.org/2000/svg" xmlns:xlink="http://www.w3.org/1999/xlink" contentStyleType="text/css" height="712px" preserveAspectRatio="none" style="width:599px;height:712px;background:#FFFFFF;" version="1.1" viewBox="0 0 599 712" width="599px" zoomAndPan="magnify"><defs/><g><text fill="#000000" font-family="sans-serif" font-size="14" font-weight="bold" lengthAdjust="spacing" textLength="127" x="229.4636" y="24.5332">Use Case Diagram</text><!--entity User--><g id="elem_User"><ellipse cx="20.5" cy="314.6094" fill="#F1F1F1" rx="8" ry="8" style="stroke:#181818;stroke-width:0.5;"/><path d="M20.5,322.6094 L20.5,349.6094 M7.5,330.6094 L33.5,330.6094 M20.5,349.6094 L7.5,364.6094 M20.5,349.6094 L33.5,364.6094 " fill="none" style="stroke:#181818;stroke-width:0.5;"/><text fill="#000000" font-family="sans-serif" font-size="14" lengthAdjust="spacing" textLength="29" x="6" y="380.6426">User</text></g><g id="elem_As a User, I want to upload files"><ellipse cx="344.3945" cy="70.2883" fill="#F1F1F1" rx="116.3945" ry="25.6789" style="stroke:#181818;stroke-width:0.5;"/><text fill="#000000" font-family="sans-serif" font-size="14" lengthAdjust="spacing" textLength="197" x="245.8945" y="74.0168">As a User, I want to upload files</text></g><g id="elem_As a User, I want to remove files"><ellipse cx="344.7402" cy="157.1574" fill="#F1F1F1" rx="118.2402" ry="26.048" style="stroke:#181818;stroke-width:0.5;"/><text fill="#000000" font-family="sans-serif" font-size="14" lengthAdjust="spacing" textLength="201" x="244.2402" y="160.8859">As a User, I want to remove files</text></g><g id="elem_As a User, I want to view the chat history"><ellipse cx="344.622" cy="249.0338" fill="#F1F1F1" rx="142.622" ry="30.9244" style="stroke:#181818;stroke-width:0.5;"/><text fill="#000000" font-family="sans-serif" font-size="14" lengthAdjust="spacing" textLength="253" x="218.122" y="252.7623">As a User, I want to view the chat history</text></g><g id="elem_As a User, I want to delete a chat page"><ellipse cx="344.3863" cy="345.0866" fill="#F1F1F1" rx="137.8863" ry="29.9773" style="stroke:#181818;stroke-width:0.5;"/><text fill="#000000" font-family="sans-serif" font-size="14" lengthAdjust="spacing" textLength="243" x="222.8863" y="348.8151">As a User, I want to delete a chat page</text></g><g id="elem_As a User, I want to create a new chat page"><ellipse cx="344.6453" cy="442.9384" fill="#F1F1F1" rx="152.1453" ry="32.8291" style="stroke:#181818;stroke-width:0.5;"/><text fill="#000000" font-family="sans-serif" font-size="14" lengthAdjust="spacing" textLength="273" x="208.1453" y="446.6669">As a User, I want to create a new chat page</text></g><g id="elem_As a User, I want to ask a question and get an answer according to the files"><ellipse cx="344.4636" cy="563.9021" fill="#F1F1F1" rx="249.4636" ry="52.2927" style="stroke:#181818;stroke-width:0.5;"/><text fill="#000000" font-family="sans-serif" font-size="14" lengthAdjust="spacing" textLength="473" x="107.9636" y="567.6306">As a User, I want to ask a question and get an answer according to the files</text></g><g id="elem_As a User, I want to visualize a file"><ellipse cx="344.3414" cy="679.1777" fill="#F1F1F1" rx="123.3414" ry="27.0683" style="stroke:#181818;stroke-width:0.5;"/><text fill="#000000" font-family="sans-serif" font-size="14" lengthAdjust="spacing" textLength="212" x="238.3414" y="682.9062">As a User, I want to visualize a file</text></g><!--link User to As a User, I want to upload files--><g id="link_User_As a User, I want to upload files"><path d="M22.11,306.0694 C25.17,253.8494 38.82,162.1494 95,113.1094 C131.69,81.0794 177.4486,69.2413 224.2186,65.5513 " fill="none" id="User-to-As a User, I want to upload files" style="stroke:#181818;stroke-width:1.0;"/><polygon fill="#181818" points="230.2,65.0794,220.9133,61.7996,225.2155,65.4726,221.5425,69.7749,230.2,65.0794" style="stroke:#181818;stroke-width:1.0;"/></g><!--link User to As a User, I want to remove files--><g id="link_User_As a User, I want to remove files"><path d="M30.76,306.0394 C40.8,272.5594 60.27,225.7794 95,200.1094 C132.5,172.3894 175.8325,160.9228 220.6325,156.2428 " fill="none" id="User-to-As a User, I want to remove files" style="stroke:#181818;stroke-width:1.0;"/><polygon fill="#181818" points="226.6,155.6194,217.2331,152.5761,221.6271,156.1389,218.0643,160.5328,226.6,155.6194" style="stroke:#181818;stroke-width:1.0;"/></g><!--link User to As a User, I want to view the chat history--><g id="link_User_As a User, I want to view the chat history"><path d="M35.22,333.7794 C49.34,322.7194 72.4,306.2594 95,297.1094 C133.69,281.4494 171.9836,271.8549 212.2736,264.6549 " fill="none" id="User-to-As a User, I want to view the chat history" style="stroke:#181818;stroke-width:1.0;"/><polygon fill="#181818" points="218.18,263.5994,208.6167,261.245,213.258,264.479,210.024,269.1203,218.18,263.5994" style="stroke:#181818;stroke-width:1.0;"/></g><!--link User to As a User, I want to delete a chat page--><g id="link_User_As a User, I want to delete a chat page"><path d="M35.34,345.1094 C65.25,345.1094 132.72,345.1094 200.42,345.1094 " fill="none" id="User-to-As a User, I want to delete a chat page" style="stroke:#181818;stroke-width:1.0;"/><polygon fill="#181818" points="206.42,345.1094,197.42,341.1094,201.42,345.1094,197.42,349.1094,206.42,345.1094" style="stroke:#181818;stroke-width:1.0;"/></g><!--link User to As a User, I want to create a new chat page--><g id="link_User_As a User, I want to create a new chat page"><path d="M35.02,355.9294 C49.16,366.7094 72.41,382.9394 95,392.1094 C132.54,407.3494 169.3014,417.0787 208.5514,424.7487 " fill="none" id="User-to-As a User, I want to create a new chat page" style="stroke:#181818;stroke-width:1.0;"/><polygon fill="#181818" points="214.44,425.8994,206.3742,420.2475,209.5328,424.9404,204.8399,428.099,214.44,425.8994" style="stroke:#181818;stroke-width:1.0;"/></g><!--link User to As a User, I want to ask a question and get an answer according to the files--><g id="link_User_As a User, I want to ask a question and get an answer according to the files"><path d="M31.34,384.3994 C41.73,417.9594 61.37,465.1194 95,493.1094 C113.19,508.2494 128.9096,517.8425 151.1796,527.2125 " fill="none" id="User-to-As a User, I want to ask a question and get an answer according to the files" style="stroke:#181818;stroke-width:1.0;"/><polygon fill="#181818" points="156.71,529.5394,149.9656,522.3621,152.1013,527.6003,146.8631,529.736,156.71,529.5394" style="stroke:#181818;stroke-width:1.0;"/></g><!--link User to As a User, I want to visualize a file--><g id="link_User_As a User, I want to visualize a file"><path d="M26.21,384.1894 C35.54,454.9794 58.7,600.2594 95,634.1094 C128.99,665.7994 171.4702,678.3684 216.5702,682.9084 " fill="none" id="User-to-As a User, I want to visualize a file" style="stroke:#181818;stroke-width:1.0;"/><polygon fill="#181818" points="222.54,683.5094,213.9859,678.6281,217.5651,683.0086,213.1846,686.5878,222.54,683.5094" style="stroke:#181818;stroke-width:1.0;"/></g><!--SRC=[ZP11YiCm34NtFeMMBKmlq4LXQ3Up7de0OQkEY6jd9AMXFVt8kK02HeR__qF-BlGmi0R2UJ18B1IDMmqwSfrGy0aJnX4p_Tgx47GRQouKWh6vS5U2A_guCMQFXt1sISw0sZq9eKyudIvm-5R0LVo27rYmheldgJHCyE12UjmA2ptRYtQ6NqmBs40G1pGOMAt9UvDALCZ8ZPMQlFac4eLmHQelt8-XZgx-pQJznm5hWapcjnzT7CKOcoIkkQTxaRszTSR2d_wYJXp3Fm00]--></g></svg>