<?xml version="1.0" encoding="us-ascii" standalone="no"?><svg xmlns="http://www.w3.org/2000/svg" xmlns:xlink="http://www.w3.org/1999/xlink" contentStyleType="text/css" height="737px" preserveAspectRatio="none" style="width:586px;height:737px;background:#FFFFFF;" version="1.1" viewBox="0 0 586 737" width="586px" zoomAndPan="magnify"><defs/><g><text fill="#000000" font-family="sans-serif" font-size="14" font-weight="bold" lengthAdjust="spacing" textLength="127" x="222.6344" y="24.5332">Use Case Diagram</text><!--entity User--><g id="elem_User"><ellipse cx="325.03" cy="52.6094" fill="#F1F1F1" rx="8" ry="8" style="stroke:#181818;stroke-width:0.5;"/><path d="M325.03,60.6094 L325.03,87.6094 M312.03,68.6094 L338.03,68.6094 M325.03,87.6094 L312.03,102.6094 M325.03,87.6094 L338.03,102.6094 " fill="none" style="stroke:#181818;stroke-width:0.5;"/><text fill="#000000" font-family="sans-serif" font-size="14" lengthAdjust="spacing" textLength="29" x="310.53" y="118.6426">User</text></g><g id="elem_As a User, I want to upload files"><ellipse cx="324.9245" cy="706.2883" fill="#F1F1F1" rx="116.3945" ry="25.6789" style="stroke:#181818;stroke-width:0.5;"/><text fill="#000000" font-family="sans-serif" font-size="14" lengthAdjust="spacing" textLength="197" x="226.4245" y="710.0168">As a User, I want to upload files</text></g><g id="elem_As a User, I want to remove files"><ellipse cx="325.2702" cy="619.1574" fill="#F1F1F1" rx="118.2402" ry="26.048" style="stroke:#181818;stroke-width:0.5;"/><text fill="#000000" font-family="sans-serif" font-size="14" lengthAdjust="spacing" textLength="201" x="224.7702" y="622.8859">As a User, I want to remove files</text></g><g id="elem_As a User, I want to view the chat history"><ellipse cx="325.152" cy="527.0338" fill="#F1F1F1" rx="142.622" ry="30.9244" style="stroke:#181818;stroke-width:0.5;"/><text fill="#000000" font-family="sans-serif" font-size="14" lengthAdjust="spacing" textLength="253" x="198.652" y="530.7623">As a User, I want to view the chat history</text></g><g id="elem_As a User, I want to delete a chat page"><ellipse cx="324.9163" cy="431.0866" fill="#F1F1F1" rx="137.8863" ry="29.9773" style="stroke:#181818;stroke-width:0.5;"/><text fill="#000000" font-family="sans-serif" font-size="14" lengthAdjust="spacing" textLength="243" x="203.4163" y="434.8151">As a User, I want to delete a chat page</text></g><g id="elem_As a User, I want to create a new chat page"><ellipse cx="325.1753" cy="332.9384" fill="#F1F1F1" rx="152.1453" ry="32.8291" style="stroke:#181818;stroke-width:0.5;"/><text fill="#000000" font-family="sans-serif" font-size="14" lengthAdjust="spacing" textLength="273" x="188.6753" y="336.6669">As a User, I want to create a new chat page</text></g><g id="elem_As a User, I want to ask a question and get an answer/n according to the files"><ellipse cx="324.8994" cy="211.0833" fill="#F1F1F1" rx="255.3694" ry="53.4739" style="stroke:#181818;stroke-width:0.5;"/><text fill="#000000" font-family="sans-serif" font-size="14" lengthAdjust="spacing" textLength="485" x="82.3994" y="214.8118">As a User, I want to ask a question and get an answer/n according to the files</text></g><!--link User to As a User, I want to upload files--><g id="link_User_As a User, I want to upload files"><path d="M310.34,80.9694 C260.01,74.5894 94.64,61.6594 39.53,157.6094 C12.58,204.5294 12.58,597.6894 39.53,644.6094 C74.32,705.1694 148.3304,718.4361 214.8304,717.6961 " fill="none" id="User-to-As a User, I want to upload files" style="stroke:#181818;stroke-width:1.0;"/><polygon fill="#181818" points="220.83,717.6294,211.786,713.7298,215.8303,717.685,211.8751,721.7293,220.83,717.6294" style="stroke:#181818;stroke-width:1.0;"/></g><!--link User to As a User, I want to remove files--><g id="link_User_As a User, I want to remove files"><path d="M310.34,80.9694 C260.01,74.5894 94.64,61.6594 39.53,157.6094 C17.4,196.1494 17.4,519.0694 39.53,557.6094 C74,617.6194 146.8802,631.162 213.0102,630.692 " fill="none" id="User-to-As a User, I want to remove files" style="stroke:#181818;stroke-width:1.0;"/><polygon fill="#181818" points="219.01,630.6494,209.9818,626.7134,214.0101,630.6849,210.0387,634.7132,219.01,630.6494" style="stroke:#181818;stroke-width:1.0;"/></g><!--link User to As a User, I want to view the chat history--><g id="link_User_As a User, I want to view the chat history"><path d="M310.34,80.9694 C260.01,74.5894 94.64,61.6594 39.53,157.6094 C6,215.9994 6,402.2194 39.53,460.6094 C68.68,511.3594 123.2829,529.4058 181.1629,534.4758 " fill="none" id="User-to-As a User, I want to view the chat history" style="stroke:#181818;stroke-width:1.0;"/><polygon fill="#181818" points="187.14,534.9994,178.5234,530.2293,182.1591,534.5631,177.8253,538.1988,187.14,534.9994" style="stroke:#181818;stroke-width:1.0;"/></g><!--link User to As a User, I want to delete a chat page--><g id="link_User_As a User, I want to delete a chat page"><path d="M310.34,80.9694 C260.01,74.5894 94.64,61.6594 39.53,157.6094 C16.51,197.6894 16.51,325.5294 39.53,365.6094 C69.67,418.0894 127.4939,435.5211 187.1639,439.5911 " fill="none" id="User-to-As a User, I want to delete a chat page" style="stroke:#181818;stroke-width:1.0;"/><polygon fill="#181818" points="193.15,439.9994,184.4431,435.3962,188.1616,439.6591,183.8987,443.3776,193.15,439.9994" style="stroke:#181818;stroke-width:1.0;"/></g><!--link User to As a User, I want to create a new chat page--><g id="link_User_As a User, I want to create a new chat page"><path d="M310.34,80.9694 C260.01,74.5894 94.64,61.6594 39.53,157.6094 C15.85,198.8494 15.85,223.3694 39.53,264.6094 C66.7,311.8994 115.0789,330.8651 169.1189,337.8051 " fill="none" id="User-to-As a User, I want to create a new chat page" style="stroke:#181818;stroke-width:1.0;"/><polygon fill="#181818" points="175.07,338.5694,166.6528,333.4556,170.1107,337.9325,165.6338,341.3904,175.07,338.5694" style="stroke:#181818;stroke-width:1.0;"/></g><!--link User to As a User, I want to ask a question and get an answer/n according to the files--><g id="link_User_As a User, I want to ask a question and get an answer/n according to the files"><path d="M325.03,122.3994 C325.03,134.1294 325.03,139.8694 325.03,151.6094 " fill="none" id="User-to-As a User, I want to ask a question and get an answer/n according to the files" style="stroke:#181818;stroke-width:1.0;"/><polygon fill="#181818" points="325.03,157.6094,329.03,148.6094,325.03,152.6094,321.03,148.6094,325.03,157.6094" style="stroke:#181818;stroke-width:1.0;"/></g><!--SRC=[ZP31QWCn34Jl_WeTMsZfFOT2Q2yzbtw0i2TUiOwzbPKi-Vl8I-uRCBAPcOSO5voCh95AdeoIAA99gw7FKXTMFjF2SUQCNxiLqB2vve8GJCo5lmxwOX_VmjdZ8HnSqWDn7vw6C2QzVzBBiHDlsXlzqCfrstjPIkD49odehpjPnRbTyLpsAbZ99b2Ss6YIRarlUr12WS6D3LgyzHuH5RmHrTSzJN6VNVs_e8-_9gw9CinlFts5VlWZngP9QXxvqUFH-Wu0]--></g></svg>